<?xml version="1.0" encoding="UTF-8" standalone="no"?>
<!-- Created with Inkscape (http://www.inkscape.org/) -->

<svg
   xmlns:dc="http://purl.org/dc/elements/1.1/"
   xmlns:cc="http://creativecommons.org/ns#"
   xmlns:rdf="http://www.w3.org/1999/02/22-rdf-syntax-ns#"
   xmlns:svg="http://www.w3.org/2000/svg"
   xmlns="http://www.w3.org/2000/svg"
   xmlns:sodipodi="http://sodipodi.sourceforge.net/DTD/sodipodi-0.dtd"
   xmlns:inkscape="http://www.inkscape.org/namespaces/inkscape"
   id="svg3009"
   version="1.1"
   inkscape:version="0.47+devel r9404"
   width="1500"
   height="1917"
   sodipodi:docname="paper-mario-wii_alt.svg">
  <metadata
     id="metadata3015">
    <rdf:RDF>
      <cc:Work
         rdf:about="">
        <dc:format>image/svg+xml</dc:format>
        <dc:type
           rdf:resource="http://purl.org/dc/dcmitype/StillImage" />
        <dc:title></dc:title>
      </cc:Work>
    </rdf:RDF>
  </metadata>
  <defs
     id="defs3013">
    <filter
       id="filter2974"
       inkscape:label="Clean edges"
       inkscape:menu="ABCs"
       inkscape:menu-tooltip="Removes or decreases glows and jaggeries around objects edges after applying some filters"
       height="1"
       width="1"
       y="0"
       x="0"
       color-interpolation-filters="sRGB">
      <feGaussianBlur
         id="feGaussianBlur2976"
         result="result6"
         stdDeviation="0.01" />
      <feComposite
         id="feComposite2978"
         in2="result6"
         operator="in"
         in="SourceGraphic"
         result="result7" />
      <feComposite
         id="feComposite2980"
         in2="result7"
         operator="in"
         result="result8"
         in="result7" />
    </filter>
    <filter
       id="filter3016"
       inkscape:label="Light eraser"
       x="0"
       y="0"
       width="1"
       height="1"
       inkscape:menu="Transparency utilities"
       inkscape:menu-tooltip="Make the lightest parts of the object progressively transparent"
       color-interpolation-filters="sRGB">
      <feConvolveMatrix
         id="feConvolveMatrix3018"
         order="5 5"
         kernelMatrix="1 1 1 1 -8 1 1 1 1"
         in="SourceGraphic"
         divisor="0"
         targetX="1"
         targetY="3"
         preserveAlpha="true"
         result="fbSourceGraphic"
         bias="-10" />
      <feColorMatrix
         result="fbSourceGraphicAlpha"
         in="fbSourceGraphic"
         values="0 0 0 -1 0 0 0 0 -1 0 0 0 0 -1 0 0 0 0 1 0"
         id="feColorMatrix3040" />
      <feColorMatrix
         id="feColorMatrix3042"
         result="result14"
         type="luminanceToAlpha"
         in="fbSourceGraphic" />
      <feComposite
         id="feComposite3044"
         in2="result14"
         in="fbSourceGraphic"
         result="fbSourceGraphic"
         operator="out" />
      <feBlend
         id="feBlend3046"
         in2="fbSourceGraphic"
         mode="normal"
         result="result15" />
    </filter>
    <filter
       id="filter3139"
       inkscape:label="Edge detect"
       x="0"
       y="0"
       width="1"
       height="1"
       inkscape:menu="Image effects"
       inkscape:menu-tooltip="Detect color edges in object"
       color-interpolation-filters="sRGB">
      <feConvolveMatrix
         id="feConvolveMatrix3141"
         order="3 3"
         kernelMatrix="1 1 1 1 -8 1 1 1 1"
         in="SourceGraphic"
         divisor="3"
         targetX="1"
         targetY="1"
         preserveAlpha="true"
         result="result0"
         bias="0" />
    </filter>
  </defs>
  <sodipodi:namedview
     pagecolor="#ffffff"
     bordercolor="#666666"
     borderopacity="1"
     objecttolerance="10"
     gridtolerance="10"
     guidetolerance="10"
     inkscape:pageopacity="0"
     inkscape:pageshadow="2"
     inkscape:window-width="916"
     inkscape:window-height="800"
     id="namedview3011"
     showgrid="false"
     inkscape:zoom="0.25642738"
     inkscape:cx="301.83886"
     inkscape:cy="1077.9668"
     inkscape:window-x="1855"
     inkscape:window-y="196"
     inkscape:window-maximized="0"
     inkscape:current-layer="svg3009" />
  <path
     style="fill:#000000"
     d="M 1040.3998,1853.9354 C 963.78267,1838.338 927.19306,1798.5254 917.4004,1720.1015 915.28124,1703.1303 915.2325,1702.9703 911.47697,1700.6492 891.99194,1688.6068 879.31509,1653.6471 871.9348,1591.6015 870.16676,1576.7377 870.04268,1576.325 867.55039,1577.0196 742.8507,1611.7755 572.79354,1572.1378 486.05311,1488.0986 473.25127,1475.6955 473.25127,1475.6955 467.68919,1482.5038 438.13558,1518.6794 379.30957,1538.291 334.19421,1527.0087 327.98866,1525.4569 327.98866,1525.4569 310.69421,1531.9616 242.0302,1557.7873 209.92393,1534.1386 177.83633,1434.1015 175.01363,1425.3015 172.07893,1416.3014 171.31463,1414.1013 170.53653,1411.8614 166.11643,1405.7006 161.27013,1400.1013 90.05043,1317.8157 65.48923,1195.1778 109.74133,1142.8109 115.00513,1136.5819 126.97293,1128.3669 142.69903,1120.1881 153.81773,1114.4056 154.11093,1114.1625 161.04103,1104.9827 223.80183,1021.8476 367.27943,1026.9584 418.7363,1114.162 422.90255,1121.2225 422.90255,1121.2225 432.17371,1112.162 445.71603,1098.9274 452.58514,1095.6015 466.37709,1095.6015 478.00026,1095.6015 506.24289,1070.976 501.16483,1065.2692 500.10399,1064.077 493.17173,1056.3515 485.75981,1048.1015 431.0812,987.24027 388.65015,925.95353 355.56995,860.05737 345.05002,839.10155 345.05002,839.10155 335.37962,829.60155 298.90958,793.77417 283.42056,760.09515 282.26102,714.10155 281.47114,682.7702 274.32678,662.07508 262.90287,658.02659 226.20637,645.02181 204.36473,616.37446 199.71083,575.14429 198.57733,565.10155 198.57733,565.10155 190.20433,555.69853 135.45373,494.21246 109.57303,408.26684 125.98653,342.44113 140.39153,284.66999 205.65933,231.43327 272.12707,223.23917 283.84135,221.79505 283.84135,221.79505 293.79696,212.54865 342.40697,167.40152 405.80429,173.5253 450.62937,227.69768 457.36917,235.84292 458.06681,236.38487 463.92958,238.02988 476.70559,241.61465 492.08508,251.49338 507.16871,265.80374 514.93768,273.17442 514.93768,273.17442 515.9544,269.13799 562.40302,84.735971 735.32328,42.127775 924.39975,168.49553 1029.6771,238.8568 1119.07,377.38194 1152.4876,521.94541 1154.3778,530.1225 1155.7168,533.95597 1156.8126,534.3277 1274.9692,574.41044 1312.1913,692.01448 1236.9748,787.60155 1230.2862,796.10155 1230.2862,796.10155 1231.0062,807.10155 1236.6586,893.46226 1182.4809,964.44216 1087.9454,994.53013 1076.491,998.17573 1076.491,998.17573 1093.9454,1005.562 1133.5601,1022.326 1168.771,1042.2583 1200.8998,1066.1072 1213.3998,1075.3859 1213.3998,1075.3859 1221.8998,1076.069 1271.5218,1080.0568 1310.0961,1110.9347 1315.0506,1150.6341 1316.299,1160.6374 1316.299,1160.6374 1322.7792,1164.1994 1396.2946,1204.6085 1422.8768,1331.7785 1374.8164,1413.1465 1349.4726,1456.0545 1298.2013,1494.1747 1246.4858,1508.5603 1240.4831,1510.2301 1235.376,1511.792 1235.1367,1512.0313 1233.3477,1513.8203 1237.1175,1531.9145 1241.1933,1541.1015 1268.9792,1603.7317 1279.4102,1701.1738 1263.7806,1752.1015 1254.0402,1783.8395 1238.129,1797.3609 1190.8998,1814.0359 1188.4248,1814.9097 1181.0383,1819.6393 1174.4854,1824.5462 1155.2464,1838.9523 1135.6126,1848.0133 1113.7377,1852.5813 1104.9626,1854.4137 1047.9229,1855.4669 1040.3998,1853.9354 z M 1104.6804,1848.5973 C 1131.5356,1843.7616 1154.1491,1833.3588 1176.0513,1815.7646 1180.0012,1812.5917 1185.469,1809.8783 1196.425,1805.6544 1228.729,1793.2001 1243.0502,1783.1727 1251.5422,1767.0628 1275.5651,1721.4895 1268.5827,1621.6765 1235.9099,1543.6015 1226.4216,1520.9282 1227.1481,1507.5399 1238.0204,1504.7073 1339.6807,1478.2209 1405.163,1390.3291 1393.5365,1295.9699 1386.3368,1237.5374 1353.4157,1183.7571 1314.2382,1166.427 1309.8998,1164.5079 1309.8998,1164.5079 1309.8998,1157.6912 1309.8998,1117.8103 1264.9224,1081.6015 1215.3836,1081.6015 1210.4814,1081.6015 1209.9239,1081.289 1198.4017,1072.0822 1170.0619,1049.437 1124.6607,1024.0829 1082.1498,1007.1617 1059.2576,998.04966 1058.8369,996.67317 1077.3998,991.61764 1106.0542,983.8137 1158.8998,957.14045 1158.8998,950.4814 1158.8998,949.99748 1159.4682,949.60155 1160.1629,949.60155 1164.2296,949.60155 1188.0548,924.95221 1197.5952,910.87445 1217.9501,880.83862 1224.5378,858.92418 1225.565,817.83028 1226.2322,791.13703 1226.2322,791.13703 1233.4906,782.01976 1277.3608,726.91391 1282.644,649.34479 1245.5502,604.95689 1243.7782,602.83645 1241.5025,599.79677 1240.4931,598.20203 1228.8291,579.77473 1195.6783,555.97431 1164.3998,543.5713 1148.5494,537.28607 1150.4877,539.41787 1147.4223,524.8992 1141.2347,495.5935 1123.5165,443.54095 1108.7054,411.1571 1100.6196,393.47796 1081.1892,355.30362 1079.0937,352.97994 1078.162,351.94683 1075.4784,347.27655 1073.13,342.60155 1070.7816,337.92655 1066.6307,330.95155 1063.9058,327.10155 1061.1808,323.25155 1057.8417,318.07655 1056.4856,315.60155 1055.1294,313.12655 1051.304,307.27655 1047.9847,302.60155 1044.6654,297.92655 1040.2862,291.62655 1038.2531,288.60155 1023.4309,266.54826 974.73507,212.79936 959.86556,202.08004 957.59314,200.44187 953.69974,197.39752 951.21355,195.31481 947.70903,192.37903 946.38918,191.78039 945.34029,192.6509 943.68387,194.0256 941.56792,192.90867 942.28559,191.03844 944.81818,184.43864 869.54732,140.33708 828.39975,124.31215 741.16584,90.338911 659.46277,95.58175 601.66312,138.86172 589.26223,148.14741 571.73226,165.49847 572.45406,167.77266 572.88324,169.12488 572.5176,169.60155 571.05117,169.60155 568.78739,169.60155 565.74246,173.22627 557.06723,186.24821 541.35272,209.83645 532.16972,231.26495 522.44614,267.03636 518.48422,281.61159 518.78063,281.11305 513.51985,282.04994 509.75633,282.72019 509.65478,282.66338 510.13408,280.15605 510.56175,277.91883 509.33513,276.39052 501.01398,268.79281 484.07398,253.32557 475.89525,248.14607 459.66727,242.60841 452.33146,240.10513 449.7725,238.77191 449.27577,237.19442 446.10681,227.13058 421.23441,204.70866 405.14918,197.41526 367.30325,180.2551 329.39342,187.67501 295.4606,218.8841 286.39975,227.21765 286.39975,227.21765 275.39975,228.45749 254.39228,230.8253 235.60369,236.82446 215.33523,247.63596 201.60323,254.96082 198.51373,257.12585 178.19783,273.66087 117.32453,323.20518 109.72043,410.72451 158.53343,499.98774 172.23353,525.04087 199.50763,560.60155 205.02263,560.60155 207.12273,560.60155 207.58443,563.51685 205.77153,565.32981 201.61223,569.48908 214.49273,616.60155 219.78913,616.60155 220.26243,616.60155 220.89993,617.85259 221.20573,619.38164 222.36173,625.16169 246.31818,646.62473 251.59259,646.60582 252.24865,646.60347 254.35532,647.52781 256.27408,648.65991 258.19284,649.792 263.23304,651.9295 267.47452,653.40991 279.0713,657.45753 285.87819,676.54786 286.97547,708.10155 288.20353,743.41607 294.90029,766.0166 312.07106,792.79527 318.55029,802.89996 340.76866,828.12306 345.35029,830.57508 347.70979,831.83785 357.89975,848.33909 357.89975,850.89722 357.89975,854.24148 385.45618,903.62545 399.1356,924.79613 418.24953,954.3774 442.97955,988.38273 455.35516,1002.1016 457.33975,1004.3016 459.77971,1007.4516 460.77727,1009.1016 463.67298,1013.8911 490.87108,1045.8682 493.31072,1047.3514 495.08992,1048.4331 507.38184,1062.7653 508.79501,1065.4058 510.33165,1068.2771 510.34371,1068.2604 493.35111,1086.7626 479.69547,1101.6313 479.69547,1101.6313 471.99225,1100.9888 460.56311,1100.0357 447.09019,1104.6401 443.90756,1110.5869 443.31456,1111.6949 442.21913,1112.6015 441.47326,1112.6015 440.02346,1112.6015 429.59999,1122.6032 427.14503,1126.3499 423.8726,1131.3443 417.49032,1126.5704 411.43827,1114.6015 378.30595,1049.0769 261.63109,1030.6951 194.39973,1080.4076 185.06373,1087.3109 179.79433,1092.646 181.64973,1093.3165 183.58403,1094.0155 183.12483,1096.6015 181.06643,1096.6015 178.44913,1096.6015 177.73103,1095.5336 179.11103,1093.6936 179.76773,1092.8179 178.42863,1093.8659 176.13523,1096.0224 173.84183,1098.1788 171.26143,1101.427 170.40083,1103.2404 169.54023,1105.0539 168.25523,1106.8895 167.54513,1107.3196 166.83493,1107.7496 164.43343,1110.5897 162.20833,1113.6309 158.65743,1118.4839 156.77053,1119.8767 146.78123,1125.0181 115.92773,1140.8981 105.01993,1153.2395 96.32893,1182.1015 83.54243,1224.5643 107.30103,1320.8622 141.02943,1363.2803 143.13793,1365.9319 145.32773,1369.1602 145.89563,1370.4541 147.33063,1373.7234 154.70573,1383.1668 165.73693,1395.8599 175.08673,1406.6183 175.08673,1406.6183 180.37553,1423.3599 197.22033,1476.6818 222.59203,1524.6015 233.97922,1524.6015 234.99681,1524.6015 236.29267,1525.4672 236.85891,1526.5252 243.9146,1539.7089 274.17103,1539.3697 310.89975,1525.6952 327.39975,1519.5521 327.39975,1519.5521 338.39975,1522.1955 374.54681,1530.8822 423.93344,1516.2314 453.94738,1487.9178 457.77118,1484.3106 460.89975,1481.0097 460.89975,1480.5824 460.89975,1479.6338 472.2913,1467.6015 473.18938,1467.6015 473.54181,1467.6015 475.38492,1468.9666 477.28519,1470.6351 479.34393,1472.4427 480.99838,1473.2509 481.37901,1472.6351 482.79401,1470.3455 485.05368,1471.571 484.75029,1474.4634 484.53326,1476.5325 485.34351,1478.3429 487.67492,1480.9982 489.64521,1483.2423 490.89975,1484.074 490.89975,1483.1363 490.89975,1482.2922 491.57475,1481.6015 492.39975,1481.6015 494.11369,1481.6015 494.45738,1484.249 492.81452,1484.7966 492.21765,1484.9955 492.9692,1486.3982 494.48464,1487.9137 496.31031,1489.7393 497.47608,1490.287 497.9397,1489.5369 498.32454,1488.9142 499.48031,1488.5667 500.50809,1488.7646 502.62506,1489.1723 503.66616,1492.5098 501.99797,1493.5408 500.20059,1494.6516 520.78669,1511.4028 527.28703,1514.1188 529.17324,1514.907 530.87024,1515.9434 531.05813,1516.4221 531.74884,1518.1818 541.7621,1524.5693 555.39975,1531.9495 598.46027,1555.2525 645.01459,1570.6171 698.39975,1579.1446 735.15367,1585.0155 816.5897,1582.1433 857.30777,1573.5401 864.95718,1571.9239 871.77154,1570.6015 872.45078,1570.6015 874.37299,1570.6015 874.83727,1572.6774 877.93022,1595.1015 886.3305,1656.0041 896.73672,1684.1105 915.28236,1695.9868 920.39975,1699.2639 920.39975,1699.2639 922.72775,1717.1827 931.18873,1782.3077 949.06844,1809.5168 999.99382,1834.7648 1005.1671,1837.3296 1011.4247,1839.9615 1013.8997,1840.6135 1016.3747,1841.2654 1019.5247,1842.3687 1020.8997,1843.0654 1034.4419,1849.9266 1080.4334,1852.9633 1104.6804,1848.5973 z M 1045.3998,1807.19 C 990.46098,1794.0464 965.92525,1757.3671 965.90565,1688.3515 965.89975,1667.6015 965.89975,1667.6015 960.14975,1667.5959 950.87856,1667.5869 947.19915,1666.0609 940.6443,1659.5061 937.3968,1656.2585 934.32575,1653.6015 933.81975,1653.6015 933.31375,1653.6015 932.89975,1652.8999 932.89975,1652.0425 932.89975,1651.185 933.27394,1650.7147 933.73129,1650.9974 934.18864,1651.28 933.51651,1647.5941 932.23767,1642.8064 925.23965,1616.6074 914.89975,1528.4716 914.89975,1495.0205 914.89975,1474.6177 932.55389,1461.7802 953.41231,1467.0153 969.65447,1471.0918 982.07391,1519.9788 986.714,1598.1015 987.48613,1611.1015 987.48613,1611.1015 989.80404,1604.1015 999.72591,1574.1379 984.00179,1480.0628 965.44882,1458.3878 956.7484,1448.2233 981.37837,1426.3552 1012.8997,1416.2577 1028.3703,1411.3019 1025.2497,1410.7036 1054.3998,1424.2137 1056.5809,1425.2246 1058.4848,1427.7192 1061.3749,1433.3528 1077.8184,1465.4059 1107.401,1489.0814 1141.7716,1497.6957 1148.2213,1499.3122 1148.0424,1498.9396 1150.8277,1516.5519 1151.9976,1523.9496 1154.9497,1538.5746 1157.388,1549.0519 1171.8662,1611.265 1179.9144,1695.546 1174.9656,1733.1263 1167.8164,1787.4165 1107.3129,1822.0021 1045.3998,1807.19 z M 1095.5188,1803.0964 C 1128.3273,1797.5362 1157.3615,1774.0939 1166.7286,1745.6015 1176.6149,1715.5298 1169.2583,1621.9299 1150.9975,1545.4494 1149.336,1538.4907 1146.7915,1526.3407 1145.3431,1518.4494 1143.8947,1510.558 1142.6124,1503.9991 1142.4937,1503.8739 1142.375,1503.7487 1138.3739,1502.5149 1133.6025,1501.1322 1101.7664,1491.9065 1071.0915,1466.4908 1056.0202,1436.8515 1049.2769,1423.5901 991.09357,1445.1144 980.49735,1464.7904 978.68336,1468.1588 978.69131,1468.2818 981.16658,1475.1504 1001.4115,1531.3279 1003.4826,1620.6015 984.54082,1620.6015 981.75171,1620.6015 982.06404,1623.2669 979.91235,1581.1015 977.47016,1533.2432 969.25991,1497.5049 958.92319,1489.7381 943.63097,1478.2478 926.35508,1490.4703 924.25344,1514.2666 923.80273,1519.3698 923.26362,1521.2946 922.37997,1520.9555 921.42706,1520.5899 921.47712,1521.9417 922.5958,1526.7841 923.39688,1530.2516 923.79152,1534.3927 923.47277,1535.9864 923.15402,1537.5801 923.31905,1542.758 923.8395,1547.4928 924.35995,1552.2276 925.29348,1561.2765 925.91401,1567.6015 933.33404,1643.2331 941.14957,1663.337 962.78832,1662.4536 972.17859,1662.0702 971.78061,1661.12 970.59828,1681.1015 965.65714,1764.6071 1018.4448,1816.1585 1095.5188,1803.0964 z M 928.90823,1488.593 C 935.11664,1482.3846 952.73837,1479.6448 959.20578,1483.8824 963.10228,1486.4355 962.74535,1483.9965 958.38718,1478.2888 945.85893,1461.8811 919.84734,1474.8328 919.94665,1497.4292 919.99356,1508.1015 919.99356,1508.1015 922.50788,1500.2903 924.38656,1494.4538 926.00462,1491.4966 928.90823,1488.593 z M 978.12984,1459.7891 C 982.01166,1453.2177 995.60715,1443.15 1007.3997,1438.1142 1018.1471,1433.5248 1036.5945,1428.6015 1043.0439,1428.6015 1047.5773,1428.6015 1047.1524,1426.9676 1042.1296,1425.0854 1039.5282,1424.1107 1035.4618,1422.1953 1033.0932,1420.8291 1017.7909,1412.003 963.05821,1444.338 971.7126,1457.0916 976.02924,1463.4529 975.97826,1463.4315 978.12984,1459.7891 z M 1192.2318,1726.9723 C 1192.469,1673.4992 1185.9712,1624.9225 1170.0279,1560.9798 1164.0116,1536.8505 1158.7843,1504.2154 1160.493,1501.4507 1161.1601,1500.3713 1185.612,1500.3268 1186.2776,1501.4037 1186.5503,1501.845 1187.3297,1509.8325 1188.0096,1519.1537 1189.2459,1536.1015 1189.2459,1536.1015 1196.5892,1550.8716 1233.1175,1624.3438 1238.793,1740.7274 1206.7953,1760.165 1191.9048,1769.2105 1192.0431,1769.5256 1192.2318,1726.9723 z M 1208.0975,1750.9362 C 1232.6175,1725.5078 1223.6419,1618.0777 1191.655,1554.133 1184.8343,1540.498 1184.6452,1539.913 1183.7314,1529.633 1181.56,1505.2023 1182.4203,1507.1398 1173.5964,1506.8085 1165.793,1506.5154 1165.793,1506.5154 1166.3204,1509.8085 1166.6104,1511.6196 1167.5527,1518.2765 1168.4144,1524.6015 1169.2761,1530.9265 1172.6317,1547.3515 1175.8712,1561.1015 1192.4435,1631.4401 1197.2659,1667.1813 1197.3438,1720.2431 1197.4058,1762.4911 1197.2858,1762.1485 1208.0975,1750.9362 z M 726.39975,1538.5746 C 692.68796,1534.1459 677.94165,1531.1889 656.89975,1524.6381 651.01233,1522.8052 650.28906,1522.7636 649.22526,1524.1959 647.60824,1526.373 644.60215,1525.5754 643.9436,1522.7944 642.99732,1518.7984 632.16042,1515.0175 632.72749,1518.8812 633.10396,1521.4462 632.88302,1521.7356 630.77588,1521.4376 628.81763,1521.1606 628.42324,1520.5524 628.53332,1517.9791 628.66298,1514.9479 628.415,1514.7613 620.03332,1511.5832 568.55812,1492.0652 527.25732,1461.1314 499.89587,1421.6015 494.7565,1414.1765 489.75744,1407.2015 488.78686,1406.1015 487.81628,1405.0015 484.80579,1399.9051 482.0969,1394.7761 478.78461,1388.5046 476.97364,1385.9666 476.56707,1387.0261 475.51145,1389.777 471.89975,1388.9776 471.89975,1385.9931 471.89975,1383.7207 472.21699,1383.4643 474.36225,1384.0027 476.82475,1384.6208 476.82475,1384.6208 473.72647,1377.8611 472.02242,1374.1433 469.19623,1367.5015 467.44607,1363.1015 464.969,1356.874 463.78046,1355.0307 462.08185,1354.7819 459.70889,1354.4344 459.03302,1350.8682 460.97255,1348.9287 462.36318,1347.5381 460.28085,1339.2479 458.77472,1340.1788 458.13595,1340.5736 457.85526,1339.7281 458.0377,1337.9589 458.6766,1331.7633 456.87571,1324.7391 454.56393,1324.4098 452.7373,1324.1496 452.3516,1323.3458 452.09107,1319.2562 451.86073,1315.6408 452.09214,1314.6024 453.00276,1315.1652 453.94845,1315.7496 454.07965,1313.5743 453.58563,1305.5002 452.94813,1295.0811 452.94813,1295.0811 457.40361,1292.2623 465.72802,1286.9959 471.78676,1280.8243 471.58348,1277.8184 471.43151,1275.5712 471.79967,1275.1164 473.71299,1275.1877 475.4574,1275.2527 476.53114,1274.2691 478.0795,1271.1877 479.2088,1268.9403 480.69411,1266.4265 481.3802,1265.6015 484.2178,1262.1893 490.91415,1248.3051 495.36685,1236.6015 497.98248,1229.7265 500.50903,1223.3415 500.98141,1222.4127 508.73623,1207.1642 512.43851,1165.7587 507.31673,1151.56 505.76399,1147.2554 504.97385,1143.4424 505.33578,1142.0004 505.77331,1140.2571 505.5227,1139.6015 504.4188,1139.6015 503.58332,1139.6015 502.89975,1138.8969 502.89975,1138.0358 502.89975,1135.2711 504.91105,1132.6015 506.99395,1132.6015 508.23999,1132.6015 508.75023,1133.0344 508.3216,1133.728 507.8454,1134.4985 508.10718,1134.5775 509.15006,1133.978 510.82508,1133.0151 517.10139,1125.4215 523.92556,1116.1015 530.40715,1107.2493 562.62372,1074.7864 576.15961,1063.4681 594.46329,1048.1629 595.45207,1047.7498 601.14975,1053.0266 606.8003,1058.2597 606.31615,1060.0198 596.5274,1069.8306 591.92261,1074.4458 587.84228,1079.2072 587.46001,1080.4117 587.07774,1081.6161 586.19074,1082.6015 585.4889,1082.6015 583.01163,1082.6015 575.48367,1092.7241 575.7139,1095.7455 575.88464,1097.9863 575.42784,1098.6818 573.46116,1099.1754 567.47783,1100.6772 553.75154,1123.8905 555.26984,1129.9399 556.37771,1134.354 557.58742,1134.66 614.89975,1145.0217 667.27903,1154.4917 665.38944,1154.5115 671.48957,1144.4268 673.5939,1140.9479 677.93801,1134.5015 681.14315,1130.1015 691.36997,1116.0621 694.89975,1110.5112 694.89975,1108.4679 694.89975,1106.9994 695.46454,1106.558 697.04868,1106.7886 698.66624,1107.0241 699.96441,1105.9404 702.29868,1102.406 704.00427,1099.8235 705.72712,1097.686 706.12723,1097.656 706.52734,1097.626 710.44263,1093.8643 714.82786,1089.2965 722.80101,1080.9915 722.80101,1080.9915 738.10038,1078.829 758.64816,1075.9246 771.89975,1072.7927 771.89975,1070.8408 771.89975,1069.6917 772.69845,1069.4695 775.30658,1069.8927 780.44436,1070.7265 787.32488,1068.3958 787.72731,1065.6854 788.16141,1062.7617 790.84986,1061.8128 792.4601,1064.015 793.6625,1065.6593 794.13123,1065.6411 801.12927,1063.6774 813.48973,1060.2091 814.27123,1061.1856 808.79647,1073.2583 797.24226,1098.7371 790.82758,1132.915 792.92763,1157.8087 794.55893,1177.1458 797.33773,1191.6015 799.4236,1191.6015 801.6636,1191.6015 802.32691,1193.816 800.48937,1195.1596 797.98536,1196.9906 802.24639,1207.9371 805.65152,1208.4211 808.16502,1208.7783 808.69772,1211.3581 806.43712,1212.2255 804.51725,1212.9623 813.6276,1231.4557 817.35464,1234.3874 818.75445,1235.4884 819.89975,1237.2876 819.89975,1238.3854 819.89975,1241.3228 827.82675,1251.5854 837.71732,1261.4528 846.03877,1269.7547 865.39453,1284.0544 864.24082,1281.0479 863.85913,1280.0533 864.38028,1279.6015 865.90939,1279.6015 867.60884,1279.6015 868.0148,1280.0535 867.63155,1281.5191 866.91061,1284.276 880.74461,1290.6301 882.11937,1288.1735 883.46656,1285.7663 885.89975,1286.2616 885.89975,1288.9432 885.89975,1298.2218 945.45957,1299.7131 969.17079,1291.0282 971.49672,1290.1762 974.86225,1289.0356 976.64975,1288.4933 979.16521,1287.7303 979.89975,1286.9531 979.89975,1285.0545 979.89975,1282.4623 984.30984,1281.3318 985.10587,1283.7199 985.97408,1286.3245 995.89975,1280.585 995.89975,1277.4784 995.89975,1275.0764 996.31242,1274.6015 998.39975,1274.6015 999.94319,1274.6015 1000.8997,1275.1692 1000.8997,1276.0853 1000.8997,1277.3657 1001.3729,1277.3435 1004.3517,1275.923 1007.1875,1274.5707 1008.08,1274.5062 1009.3517,1275.5616 1011.4507,1277.3037 1011.4411,1277.3529 1006.9265,1287.9195 995.21717,1315.3261 994.11666,1350.2136 1004.0206,1380.0416 1008.1281,1392.4123 1008.24,1392.1661 996.26564,1397.0973 971.67811,1407.2228 954.29065,1419.6117 946.37174,1432.6476 942.06613,1439.7354 940.69596,1440.5978 933.71549,1440.6134 904.36331,1440.6789 887.6655,1462.8205 889.367,1499.4203 890.06616,1514.4595 890.04039,1514.752 887.96844,1515.2938 886.41304,1515.7005 886.13082,1516.175 886.89593,1517.0969 888.35743,1518.8579 887.05684,1521.6015 884.76054,1521.6015 883.70166,1521.6015 882.5123,1520.7488 882.11753,1519.7067 881.14716,1517.1452 871.43269,1520.4556 870.60236,1523.6307 870.08207,1525.6203 866.89975,1526.4547 866.89975,1524.6015 866.89975,1523.0467 865.02284,1523.3485 851.29236,1527.1116 815.62604,1536.8867 755.53453,1542.4021 726.39975,1538.5746 z M 771.39975,1533.5904 C 822.33717,1530.9283 883.07469,1516.113 883.70956,1506.1954 884.22008,1498.2202 884.42771,1498.256 869.71553,1503.7847 807.38802,1527.2069 728.78623,1527.216 660.89975,1503.8089 649.04545,1499.7216 653.36648,1497.4028 665.78106,1501.1894 732.8227,1521.6384 800.90694,1522.0961 858.59948,1502.4858 885.17725,1493.4517 882.52868,1495.3365 883.3372,1484.8809 885.6828,1454.5481 905.6469,1434.7545 934.03229,1434.6189 937.39052,1434.6028 937.98028,1434.1173 941.84209,1428.19 950.02688,1415.6275 961.74971,1406.4406 982.19759,1396.5643 999.53219,1388.1918 999.12204,1388.8526 996.06152,1374.2255 989.65325,1343.5984 990.48737,1314.7251 998.41536,1292.7468 999.78177,1288.9588 1000.8997,1285.5673 1000.8997,1285.2102 1000.8997,1284.6265 995.78098,1287.1094 991.89975,1289.5756 976.33126,1299.4681 921.29403,1305.7065 897.39975,1300.287 805.04639,1279.3404 762.1625,1175.7047 802.72669,1071.4947 803.74143,1068.8878 803.74143,1068.8878 793.07059,1072.2837 772.43899,1078.8497 751.40628,1083.4083 733.89975,1085.1084 724.0485,1086.0651 705.81307,1105.3856 682.88311,1139.1609 672.8993,1153.8669 670.56996,1156.4222 665.77214,1157.9325 661.73732,1159.2025 574.86488,1144.7333 556.15643,1139.6752 539.32344,1135.1242 550.74078,1110.2622 588.62232,1068.9787 596.55087,1060.3381 597.69241,1058.6744 596.41812,1057.6168 588.92736,1051.4 508.98209,1137.644 512.70135,1147.9294 526.05085,1184.8468 495.11814,1277.4604 463.18858,1296.1724 458.15064,1299.1248 458.12043,1299.5521 461.49664,1320.1015 482.08755,1445.4288 621.44065,1541.4276 771.39975,1533.5904 z M 661.01273,1343.1181 C 563.65158,1321.0621 566.50414,1179.3748 664.68868,1160.5328 712.98667,1151.2643 760.76449,1190.0779 765.8936,1242.7494 771.83421,1303.7544 717.36178,1355.8833 661.01273,1343.1181 z M 694.28406,1337.0111 C 712.43825,1333.2175 735.02244,1318.432 740.58626,1306.6978 741.58368,1304.5943 743.29975,1302.4745 744.39975,1301.9873 755.56217,1297.0433 764.00155,1252.493 758.01743,1230.1015 754.18326,1215.7547 745.03545,1198.4917 741.72574,1199.3573 740.29364,1199.7318 739.89975,1199.2574 739.89975,1197.1583 739.89975,1194.14 731.17,1184.1371 727.53354,1182.9885 726.35996,1182.6179 724.80329,1181.4671 724.07429,1180.4313 722.53964,1178.2507 710.33228,1171.9618 700.89975,1168.4923 680.45536,1160.9725 631.89975,1170.9356 631.89975,1182.6504 631.89975,1185.5225 628.61282,1187.1198 627.73308,1184.6753 627.54975,1184.1658 626.13716,1184.8408 624.59399,1186.1753 622.67471,1187.8349 622.27977,1188.6015 623.34399,1188.6015 625.33421,1188.6015 625.37738,1191.2042 623.39975,1191.9631 622.57475,1192.2797 621.22475,1192.2797 620.39975,1191.9631 619.47992,1191.6102 618.89975,1191.964 618.89975,1192.8779 618.89975,1193.6976 618.0254,1194.5969 616.95675,1194.8763 613.49872,1195.7806 599.19574,1220.5127 601.64975,1221.3445 603.716,1222.0448 603.14638,1225.6015 600.96796,1225.6015 589.01259,1225.6015 598.51907,1299.6498 610.70184,1301.4211 612.28417,1301.6511 612.89975,1302.4303 612.89975,1304.2031 612.89975,1307.2616 625.84383,1320.6391 633.89975,1325.9063 642.82371,1331.741 655.19274,1336.1104 670.89975,1338.9766 674.58663,1339.6493 686.41726,1338.655 694.28406,1337.0111 z M 662.39975,1320.1004 C 659.64975,1319.3472 655.43067,1318.0268 653.02402,1317.1662 650.61737,1316.3056 647.99434,1315.6015 647.19507,1315.6015 646.39579,1315.6015 643.15496,1313.3515 639.99322,1310.6015 636.0973,1307.2129 633.36024,1305.6015 631.50061,1305.6015 629.20609,1305.6015 628.80665,1305.2197 629.06206,1303.2706 629.26783,1301.7004 628.06741,1299.453 625.38363,1296.3836 590.32071,1256.284 613.61003,1185.9347 664.74363,1177.4902 691.55721,1173.062 718.73131,1187.3742 734.40901,1214.1819 736.49692,1217.752 738.87521,1221.048 739.6941,1221.5063 740.68309,1222.0598 741.00667,1223.2618 740.65785,1225.0866 740.36903,1226.5975 740.9803,1230.2452 742.01623,1233.1926 749.09262,1253.3262 739.17989,1288.3607 721.95314,1304.1015 718.94353,1306.8515 715.04138,1310.5525 713.28168,1312.326 711.52198,1314.0994 708.35367,1315.97 706.24099,1316.4827 704.12831,1316.9955 698.84027,1318.357 694.48979,1319.5083 685.20682,1321.9648 670.21675,1322.2414 662.39975,1320.1004 z M 694.01827,1314.193 C 761.52674,1293.4858 744.94188,1182.0249 674.40095,1182.352 661.92547,1182.4099 644.53981,1188.5091 645.57429,1192.4649 645.89228,1193.6809 644.01119,1195.5389 638.98502,1198.9731 614.74304,1215.5369 606.93934,1252.644 621.71322,1281.1015 629.61122,1296.3147 639.71951,1303.8424 658.64975,1308.6085 663.14434,1309.7402 664.63725,1312.6015 660.73308,1312.6015 657.00236,1312.6015 659.64872,1313.8902 666.15449,1315.2416 673.50123,1316.7676 687.31982,1316.2476 694.01827,1314.193 z M 666.89975,1310.2303 C 666.89975,1309.3373 668.66975,1308.6244 671.97566,1308.1858 691.08293,1305.6511 712.23735,1285.6493 718.33588,1264.3515 719.38397,1260.6912 722.17529,1262.3192 721.45298,1266.1695 717.90492,1285.0822 700.06794,1304.396 680.96825,1310.0061 674.10801,1312.0212 666.89975,1312.136 666.89975,1310.2303 z M 269.05671,1481.9731 C 267.21804,1481.0317 264.33427,1478.8822 262.64834,1477.1962 260.61661,1475.1645 258.79344,1474.2344 257.24138,1474.4378 254.91156,1474.7431 253.74912,1472.1543 255.89296,1471.4348 256.43923,1471.2515 255.06328,1468.4015 252.8353,1465.1015 244.2551,1452.3928 235.69825,1432.6262 224.92608,1400.6302 219.45483,1384.3792 219.22803,1383.9879 206.36483,1368.6015 150.47833,1301.7523 122.33733,1181.5652 160.33843,1172.0275 164.79213,1170.9097 165.57683,1171.9627 166.85483,1180.7715 173.82883,1228.8378 195.98393,1286.4426 239.82735,1370.5049 241.95108,1374.5768 246.03452,1384.2518 248.90168,1392.0049 254.5742,1407.3441 264.96752,1429.8508 269.56832,1436.7585 271.15924,1439.1472 273.03576,1442.2265 273.73836,1443.6015 274.44097,1444.9765 279.93971,1452.3286 285.95779,1459.9395 300.07108,1477.7881 289.02102,1492.1939 269.05671,1481.9731 z M 284.64975,1475.9637 C 289.96629,1474.0527 290.2174,1474.9921 281.51384,1464.2323 266.87998,1446.1412 256.61647,1427.6442 245.58498,1399.4811 242.00436,1390.3399 232.36984,1369.6399 224.17493,1353.4811 190.68653,1287.4485 169.69623,1231.5758 162.31603,1188.8233 160.54173,1178.5452 160.54173,1178.5452 156.78253,1182.216 132.76203,1205.6714 164.24173,1310.4329 211.88793,1365.6015 223.63033,1379.1978 224.07713,1380.02 231.72427,1402.1015 243.36734,1435.7217 251.61022,1454.3502 258.4297,1462.4547 259.78823,1464.0692 260.89975,1465.7941 260.89975,1466.2876 260.89975,1467.9336 269.35179,1475.482 272.89975,1477.0047 276.55489,1478.5734 277.66268,1478.4752 284.64975,1475.9637 z M 1152.3998,1475.2051 C 1148.5498,1474.4633 1142.2013,1472.899 1138.292,1471.7289 1134.3827,1470.5588 1130.4827,1469.6015 1129.6253,1469.6015 1128.768,1469.6015 1127.9165,1469.2405 1127.7331,1468.7993 1127.5498,1468.3581 1123.4343,1465.4249 1118.5876,1462.2812 1101.1831,1450.992 1083.7505,1430.2839 1088.9476,1427.072 1100.1148,1420.1702 1122.8998,1418.6422 1122.8998,1424.7951 1122.8998,1434.5605 1131.3666,1438.8043 1135.9271,1431.3247 1140.6544,1423.5714 1132.7452,1396.7376 1122.0081,1384.1015 1121.0734,1383.0015 1119.7498,1380.9765 1119.0667,1379.6015 1114.1644,1369.7333 1100.5376,1357.0829 1095.9059,1358.1002 1088.2275,1359.7866 1088.5141,1364.4046 1096.8988,1374.1015 1113.0134,1392.738 1112.6971,1395.632 1094.1584,1399.179 1067.7524,1404.2313 1045.4416,1397.0261 1033.6075,1379.6244 1031.9159,1377.1368 1030.1135,1374.8184 1029.6023,1374.4724 1023.8018,1370.5461 1020.1114,1320.9223 1024.2946,1303.1015 1030.485,1276.7301 1042.7069,1256.0299 1065.9451,1232.5579 1078.5036,1219.8731 1076.1529,1219.5796 1056.121,1231.3314 1043.5941,1238.6803 1041.5947,1237.3681 1041.0495,1221.4402 1040.2105,1196.9266 1054.4913,1176.026 1087.3316,1153.7046 1146.7038,1113.3496 1256.3374,1112.1122 1264.8278,1151.7014 1267.5574,1164.4291 1267.3998,1164.6015 1253.0363,1164.6015 1228.6946,1164.6015 1218.2672,1169.0023 1235.7516,1171.8964 1342.1488,1189.5077 1394.3706,1319.2783 1328.1859,1401.5946 1288.1619,1451.3739 1206.4038,1485.6101 1152.3998,1475.2051 z M 1186.3925,1470.555 C 1283.0857,1459.4786 1358.2327,1386.2102 1350.898,1310.1618 1343.8619,1237.209 1299.9459,1188.02 1232.0583,1177.053 1216.9161,1174.6069 1215.4632,1173.1944 1220.7016,1166.0119 1224.1289,1161.3126 1241.3623,1157.7283 1254.6498,1158.9511 1261.7306,1159.6027 1261.824,1159.4742 1259.3569,1152.4772 1250.3824,1127.0245 1186.6226,1120.4941 1129.8998,1139.2179 1085.7542,1153.7901 1047.5866,1189.4832 1046.21,1217.4818 1045.6155,1229.5744 1045.9215,1229.7846 1056.0667,1224.2544 1084.2784,1208.8762 1101.496,1209.3241 1083.0702,1224.9569 1000.1725,1295.2888 1011.2149,1416.5468 1098.3271,1392.494 1103.0413,1391.1923 1103.1691,1391.5252 1093.3998,1379.6598 1080.9415,1364.5285 1082.6397,1351.4887 1097.0509,1351.6235 1115.7256,1351.7981 1148.751,1409.9028 1142.3763,1431.3686 1138.1619,1445.5601 1117.8998,1443.7245 1117.8998,1429.1512 1117.8998,1427.1988 1117.4188,1425.6015 1116.831,1425.6015 1115.5669,1425.6015 1095.5392,1430.6288 1095.1155,1431.0524 1094.1829,1431.9851 1107.2574,1446.4111 1113.5757,1451.4208 1133.4686,1467.1935 1158.4444,1473.7565 1186.3925,1470.555 z M 1213.1354,1354.6597 C 1206.2787,1352.9552 1197.7255,1345.1729 1193.4415,1336.7411 1190.5267,1331.004 1179.8093,1286.7967 1179.2252,1278.1015 1178.3822,1265.5511 1189.0846,1258.8458 1197.4883,1266.6592 1202.7187,1271.5221 1223.8479,1299.9967 1231.2853,1312.2054 1245.3606,1335.3104 1234.7873,1360.0422 1213.1354,1354.6597 z M 1225.0019,1347.3316 C 1236.1354,1339.8939 1234.1587,1324.6001 1219.5435,1305.1015 1216.6577,1301.2515 1210.9706,1293.6098 1206.9053,1288.1199 1194.9404,1271.9619 1187.8998,1265.6142 1187.8998,1270.9849 1187.8998,1271.7457 1186.9551,1272.6153 1185.8005,1272.9172 1183.2386,1273.5872 1183.3747,1274.7037 1188.9323,1298.6015 1199.168,1342.6159 1210.0513,1357.3192 1225.0019,1347.3316 z M 1284.2317,1323.6651 C 1272.0103,1318.1161 1267.1898,1308.28 1256.266,1266.6015 1249.4624,1240.6434 1254.0867,1227.9585 1267.7733,1235.0361 1274.7078,1238.6221 1303.5608,1280.4901 1308.0106,1293.4236 1315.2031,1314.3289 1301.6453,1331.5715 1284.2317,1323.6651 z M 1299.0265,1317.49 C 1311.0715,1309.0108 1304.5638,1291.8545 1273.1979,1249.398 1266.2111,1239.9407 1264.1134,1238.5763 1260.3508,1241.0416 1256.5665,1243.5212 1258.3589,1254.2599 1268.3726,1289.1015 1275.463,1313.7719 1287.9202,1325.3084 1299.0265,1317.49 z M 327.39975,1471.5554 C 298.73372,1464.3515 282.61754,1446.7168 263.92666,1402.1015 261.62251,1396.6015 254.7703,1382.2015 248.69952,1370.1015 211.87853,1296.7117 187.29633,1223.8474 187.46693,1188.6015 187.75733,1128.5864 257.08841,1084.5843 323.81979,1102.0628 364.89727,1112.822 401.15471,1173.249 395.89734,1222.188 391.71737,1261.0979 395.93393,1285.1334 410.23733,1303.9299 414.41219,1309.4162 414.74269,1310.3262 415.86729,1319.4299 419.7128,1350.5598 428.44714,1382.4333 440.3692,1408.8427 456.00761,1443.4845 381.12163,1485.056 327.39975,1471.5554 z M 375.16142,1465.6897 C 401.30644,1458.8492 428.43982,1441.161 438.76279,1424.2281 440.86066,1420.787 434.85231,1408.9897 431.93103,1410.814 429.1255,1412.5661 428.17565,1410.9283 430.07649,1407.6163 431.66357,1404.8509 431.57322,1404.3523 427.23459,1391.9308 421.05474,1374.238 415.50878,1351.8091 411.88623,1329.8591 408.83066,1311.3446 408.83066,1311.3446 404.41995,1305.7231 391.13617,1288.7925 386.26081,1258.3822 390.7733,1220.6015 394.09581,1192.7839 378.53792,1152.5623 355.05168,1128.251 305.93267,1077.4065 198.46183,1112.6991 194.11513,1181.1015 193.72733,1187.2031 193.31063,1189.2964 192.82113,1187.6015 192.23153,1185.56 192.08083,1185.881 191.99943,1189.3515 191.92873,1192.3652 192.30493,1193.6015 193.29273,1193.6015 194.72273,1193.6015 195.89973,1195.67 195.89973,1198.1833 195.89973,1198.9633 195.21613,1199.6015 194.38073,1199.6015 193.33223,1199.6015 193.00783,1200.2985 193.33353,1201.8515 204.70313,1256.0637 221.85543,1303.6884 250.14833,1359.6015 256.13195,1371.4265 263.75969,1387.4015 267.09886,1395.1015 280.83383,1426.7738 286.81057,1436.9906 298.94478,1449.5397 315.09058,1466.2376 347.12408,1473.0254 375.16142,1465.6897 z M 907.39975,1281.0276 C 906.29975,1280.772 902.69975,1280.0471 899.39975,1279.4167 868.90874,1273.5925 840.16318,1250.5043 824.50157,1219.2592 820.55593,1211.3877 819.03132,1209.167 818.33051,1210.2708 817.25695,1211.9618 813.89975,1211.0875 813.89975,1209.117 813.89975,1207.3038 816.6041,1205.3007 817.93854,1206.1255 818.58285,1206.5237 818.43511,1205.5975 817.59335,1203.9616 800.01474,1169.7973 807.33411,1097.5904 832.16123,1060.2467 835.39907,1055.3765 837.5648,1051.6905 836.97398,1052.0557 836.38315,1052.4208 835.89975,1052.051 835.89975,1051.2339 835.89975,1050.4168 836.68725,1049.5424 837.64975,1049.2909 839.31642,1048.8553 839.31642,1048.828 837.64975,1048.7175 835.09649,1048.5483 835.33621,1044.6015 837.89975,1044.6015 839.25996,1044.6015 839.89975,1045.2682 839.89975,1046.6856 839.89975,1048.6299 840.15823,1048.5649 843.75581,1045.7156 854.23503,1037.4159 855.89975,1038.5747 855.89975,1054.169 855.89975,1068.365 856.59132,1070.6974 862.93827,1077.908 868.14522,1083.8234 881.48342,1092.9753 883.6731,1092.135 884.82103,1091.6945 886.16279,1092.4529 887.87925,1094.5125 890.06601,1097.1363 917.00431,1111.6015 919.70388,1111.6015 920.54875,1111.6015 952.24164,1128.001 965.39975,1135.2468 970.48033,1138.0445 972.88415,1140.0612 974.16633,1142.6015 978.19442,1150.5821 987.28982,1171.6499 989.92408,1179.1015 994.67551,1192.5419 1012.4702,1233.6977 1013.2101,1232.9578 1013.5925,1232.5754 1013.8233,1233.3513 1013.7229,1234.682 1013.6226,1236.0127 1014.0989,1238.767 1014.7815,1240.8025 1018.6268,1252.2701 988.25544,1271.7779 954.39975,1279.5862 949.41105,1280.7368 911.19242,1281.9088 907.39975,1281.0276 z M 946.89975,1275.0838 C 965.6697,1271.9945 993.89975,1260.8434 993.89975,1256.5185 993.89975,1253.6217 987.82073,1236.086 975.74528,1204.1498 969.70434,1188.1733 961.30531,1165.8125 957.08076,1154.4593 948.58234,1131.6204 948.29574,1131.2374 936.70659,1127.2303 934.33783,1126.4112 923.84975,1121.2617 913.39975,1115.7868 857.2429,1086.3656 849.96125,1079.6487 849.85812,1057.1734 849.80661,1045.9472 841.10472,1054.3949 829.9497,1076.5004 779.0546,1177.3573 846.35369,1291.6324 946.89975,1275.0838 z M 1005.2629,1248.6443 C 1010.8563,1242.6646 1011.0548,1245.4423 1003.8168,1228.4131 1000.4712,1220.5417 995.03935,1207.5765 991.74596,1199.6015 969.61774,1146.0176 968.36765,1143.5538 961.15786,1139.3136 953.58573,1134.8603 953.28623,1133.2242 965.98244,1165.6679 976.31345,1192.0676 986.33152,1218.5379 995.38294,1243.3515 999.73177,1255.2734 999.2857,1255.0345 1005.2629,1248.6443 z M 439.89975,1278.0801 C 439.89975,1276.6933 438.82296,1273.8808 437.50687,1271.8301 426.44825,1254.5986 431.14199,1219.0376 449.68024,1179.6015 456.03225,1166.089 456.50035,1164.6015 454.40072,1164.6015 453.20933,1164.6015 452.85259,1163.8591 453.08333,1161.8601 453.46384,1158.5633 456.55823,1157.5519 457.65451,1160.366 458.34568,1162.1402 458.5685,1162.073 460.72581,1159.4402 462.00514,1157.8789 462.56764,1156.6015 461.97581,1156.6015 460.67028,1156.6015 460.53349,1152.9459 461.80951,1152.1573 463.26771,1151.2561 465.89975,1152.6757 465.89975,1154.3635 465.89975,1155.7279 466.10728,1155.7381 467.64975,1154.4498 472.10892,1150.7255 483.40036,1149.1935 488.05015,1151.682 492.51372,1154.0708 494.78157,1167.2922 493.01067,1180.6015 492.38839,1185.2783 492.3679,1188.227 492.95625,1188.4348 494.56234,1189.0023 494.07434,1194.6015 492.4188,1194.6015 491.60428,1194.6015 490.7159,1195.614 490.44463,1196.8515 487.68669,1209.4327 485.5213,1218.0159 483.94833,1222.6015 482.91069,1225.6265 481.74374,1229.6765 481.3551,1231.6015 480.96646,1233.5265 480.30345,1235.3265 479.88174,1235.6015 478.77377,1236.324 468.89975,1255.826 468.89975,1257.2918 468.89975,1258.7492 462.90767,1265.6073 454.00937,1274.3342 446.58897,1281.6117 439.89975,1283.3875 439.89975,1278.0801 z M 456.34587,1263.8994 C 479.22402,1234.7503 497.67984,1158.5877 482.54989,1155.7619 464.3855,1152.3694 437.13537,1208.2388 436.93063,1249.2925 436.88204,1259.0348 438.7019,1258.1454 449.35032,1243.223 453.44392,1237.4863 456.89975,1234.8177 456.89975,1237.3933 456.89975,1239.0424 446.85107,1254.2805 443.09194,1258.3318 439.32521,1262.3914 439.22458,1262.674 440.59967,1265.3318 445.10526,1274.0404 448.63884,1273.719 456.34587,1263.8994 z M 1030.8584,1161.3515 C 1026.9573,1157.914 1021.4333,1153.2065 1018.5827,1150.8903 1015.7321,1148.5742 1011.6822,1145.1992 1009.5829,1143.3903 1007.4836,1141.5815 1005.1755,1140.2212 1004.4537,1140.3676 1003.732,1140.5139 1002.9042,1139.7264 1002.6142,1138.6176 1002.2646,1137.2807 1001.2526,1136.6015 999.61,1136.6015 998.02788,1136.6015 996.95563,1135.9232 996.64203,1134.724 996.10544,1132.672 968.46557,1115.6015 965.67977,1115.6015 964.76568,1115.6015 963.72326,1115.125 963.36329,1114.5425 963.00332,1113.9601 949.12354,1106.842 932.51934,1098.7247 915.91514,1090.6074 900.55364,1082.7589 898.38268,1081.2837 896.21172,1079.8085 893.52744,1078.5759 892.41762,1078.5446 890.33593,1078.4858 884.35151,1071.6669 880.04975,1064.452 873.50069,1053.468 880.53179,1037.9985 895.11372,1031.3089 898.76515,1029.6338 899.89975,1028.5785 899.89975,1026.8574 899.89975,1025.1178 900.4719,1024.6016 902.39975,1024.6016 903.79047,1024.6016 904.89975,1025.1811 904.89975,1025.9078 904.89975,1026.9136 906.92388,1026.7037 913.70142,1024.995 956.29729,1014.2564 1007.8519,1018.1264 1059.0696,1035.9074 1067.9746,1038.9989 1074.5334,1040.8105 1074.2622,1040.1036 1073.736,1038.7324 1076.5464,1037.2651 1077.99,1038.1573 1079.5514,1039.1223 1078.9846,1041.6015 1077.2027,1041.6015 1076.2693,1041.6015 1079.2277,1043.4015 1083.7771,1045.6015 1092.7387,1049.9353 1093.3537,1050.1449 1092.3524,1048.5249 1091.9216,1047.8279 1092.6943,1047.5634 1094.5434,1047.7749 1096.6242,1048.0128 1097.3998,1048.6446 1097.3998,1050.1015 1097.3998,1052.871 1099.9167,1054.3227 1101.0884,1052.229 1101.5893,1051.3339 1103.0537,1050.6015 1104.3425,1050.6015 1107.1134,1050.6015 1108.635,1053.5843 1106.6246,1055.0752 1105.5552,1055.8682 1107.2482,1057.2788 1114.0701,1061.2792 1119.9689,1064.7382 1122.8998,1065.983 1122.8998,1065.0292 1122.8998,1064.244 1123.7998,1063.6015 1124.8998,1063.6015 1126.0109,1063.6015 1126.8998,1064.2682 1126.8998,1065.1015 1126.8998,1065.9265 1126.1474,1066.6015 1125.2278,1066.6015 1124.3082,1066.6015 1131.1707,1071.7653 1140.4778,1078.0765 1162.1435,1092.7683 1168.1182,1097.9001 1167.7055,1101.4631 1167.3665,1104.3892 1168.5793,1103.9818 1145.1525,1109.0391 1114.8507,1115.5807 1061.1657,1142.3045 1063.4489,1149.7103 1064.0403,1151.6287 1061.4577,1154.0644 1059.8717,1153.0841 1059.2336,1152.6898 1055.411,1155.6498 1050.9427,1159.998 1041.0868,1169.5893 1040.2695,1169.6444 1030.8584,1161.3515 z M 1049.7433,1152.8009 C 1074.3118,1130.6616 1097.6711,1116.8072 1125.2421,1108.0226 1137.0844,1104.2494 1137.0844,1104.2494 1134.7421,1102.421 1126.3813,1095.8949 1101.7623,1080.4904 1087.1498,1072.6419 1077.5554,1067.4887 1069.8998,1062.7609 1069.8998,1061.9892 1069.8998,1059.8639 1071.0194,1060.1975 1083.1365,1065.9322 1100.6005,1074.1974 1120.6882,1086.5281 1140.311,1101.028 1143.3928,1103.3053 1143.4191,1103.3069 1151.8998,1101.7038 1175.5169,1097.2399 1080.0227,1044.7899 1024.3997,1031.6747 954.68743,1015.2374 878.00495,1029.6965 883.36498,1058.2679 885.04673,1067.2324 894.56556,1073.3988 945.65146,1098.6177 989.79459,1120.4093 1001.6314,1127.9016 1028.3998,1150.9943 1041.6392,1162.4159 1039.2937,1162.2173 1049.7433,1152.8009 z M 613.89975,1129.9807 C 594.37475,1126.449 577.83725,1123.3581 577.14975,1123.1119 572.20761,1121.3422 579.74311,1109.1644 598.5349,1088.5524 605.61057,1080.7914 612.02128,1073.4519 612.78093,1072.2424 613.54058,1071.033 615.97304,1069.1626 618.18639,1068.086 620.39975,1067.0094 622.41821,1065.335 622.67185,1064.365 623.4374,1061.4376 628.89975,1062.492 628.89975,1065.5672 628.89975,1068.2671 639.81183,1072.104 641.38227,1069.9563 642.02388,1069.0789 643.56312,1068.5606 644.94556,1068.7566 647.85396,1069.1688 648.81835,1072.2662 646.20684,1072.8074 642.44589,1073.5869 680.62025,1080.5631 688.89975,1080.6093 697.3682,1080.6566 699.19809,1083.7075 694.48315,1089.9183 692.8104,1092.1217 692.22488,1093.9177 692.58092,1095.7531 693.1061,1098.4605 690.24199,1100.5491 687.94822,1099.1315 686.95622,1098.5184 679.4851,1107.599 670.1763,1120.7321 656.50942,1140.0137 663.24641,1138.9065 613.89975,1129.9807 z M 664.14549,1119.2672 C 668.89156,1112.4833 676.38107,1102.4865 680.78886,1097.0522 685.19664,1091.6178 688.64812,1087.0166 688.45883,1086.8273 688.26953,1086.638 683.0038,1085.8218 676.7572,1085.0135 662.90013,1083.2203 647.99879,1079.7514 633.45876,1074.9339 621.37688,1070.9309 622.32807,1070.367 602.81361,1093.1015 599.50891,1096.9515 594.99348,1102.1265 592.77932,1104.6015 581.45029,1117.2651 581.51847,1117.8629 594.57854,1120.3782 612.32482,1123.796 653.25035,1131.4036 654.45801,1131.5091 655.04006,1131.5599 659.39942,1126.0511 664.14549,1119.2672 z M 677.39975,1060.1617 C 658.33294,1056.9486 637.72274,1050.187 614.39975,1039.4934 588.92576,1027.8134 550.52976,992.84665 530.85035,963.40588 526.47752,956.86405 522.89975,952.23987 522.89975,953.12992 522.89975,954.12879 522.23432,954.62005 521.16123,954.41339 518.8963,953.9772 518.19054,950.60155 520.36428,950.60155 521.52083,950.60155 521.89423,949.83563 521.6876,947.88709 521.2726,943.97361 523.68227,943.88301 533.25401,947.45221 546.96933,952.56651 563.03576,953.78814 579.49241,950.96799 582.52843,950.44771 582.69322,950.63578 588.49241,961.2395 616.65109,1012.7272 661.62135,1044.5511 687.04569,1030.9822 710.21904,1018.6146 718.42829,993.87635 719.52681,933.10155 719.99141,907.39743 720.39238,901.07654 721.87395,896.10155 722.85669,892.80155 724.22439,885.15155 724.91328,879.10155 726.40098,866.03618 725.6779,867.07961 734.51676,865.24324 750.73578,861.87356 770.68916,845.61043 778.85932,829.10155 792.59067,801.35554 795.76327,781.02771 789.92502,758.20035 786.2131,743.68687 777.67092,727.23038 775.15512,729.74618 773.58773,731.31357 771.6362,729.71737 772.25004,727.37005 772.73677,725.50879 772.38808,725.39632 767.41055,725.8091 761.7721,726.27668 762.99601,725.70782 714.89975,750.21557 678.23829,768.89665 648.00403,777.21765 609.70002,779.16841 596.0003,779.86611 596.0003,779.86611 590.20002,784.85057 510.91746,852.98198 363.18412,825.1563 331.97729,736.21413 284.62454,601.25469 457.56159,515.28614 564.85117,620.45045 579.67466,634.98031 579.42647,633.32292 563.64975,612.42765 552.33321,597.43961 552.82116,599.85552 557.85863,583.75485 575.14577,528.50208 568.14675,481.89989 544.2635,493.23323 533.55786,498.31339 520.80428,522.09836 513.86705,549.92153 510.02241,565.34125 510.60871,564.84976 501.1663,560.56837 491.259,556.07618 491.0122,554.80127 496.31787,535.52201 507.14097,496.19407 523.20746,469.47406 545.80137,453.22651 555.4771,446.26858 556.92966,446.21525 568.89975,452.37845 573.02475,454.50234 591.92475,464.26232 610.89975,474.06729 630.73317,484.31583 646.42204,491.83155 647.80448,491.74642 649.18423,491.66146 650.79121,492.42927 651.57467,493.54782 652.32568,494.62004 656.30558,497.13797 660.4189,499.14322 664.53221,501.14848 668.12828,503.16231 668.41017,503.61841 668.69205,504.07451 670.34236,504.75949 672.07752,505.1406 673.81268,505.5217 676.10676,506.64814 677.17547,507.6438 679.85523,510.14037 693.31647,516.60155 695.83808,516.60155 696.972,516.60155 697.91879,517.16405 697.94206,517.85155 697.96533,518.53905 701.22783,520.67474 705.19206,522.59752 709.15629,524.52031 713.5522,526.85289 714.96074,527.78103 716.36929,528.70918 718.71333,529.76764 720.16973,530.13317 721.62612,530.49871 723.34127,531.42863 723.98118,532.19966 724.62108,532.9707 726.18798,533.60155 727.46318,533.60155 728.73837,533.60155 730.08285,534.08879 730.4509,534.68431 730.81895,535.27983 733.04593,536.59259 735.39975,537.60155 737.75357,538.61051 739.98055,539.92327 740.3486,540.51879 740.71665,541.11431 742.29308,541.60155 743.85178,541.60155 745.41048,541.60155 746.90635,542.17637 747.17595,542.87893 747.68187,544.19734 749.72385,545.27688 770.89975,555.42116 783.01109,561.22308 807.02405,571.60155 808.33676,571.60155 808.69227,571.60155 812.00189,573.01694 815.69145,574.74685 819.38102,576.47677 823.81997,577.84206 825.5558,577.78083 827.42038,577.71507 828.93126,578.24128 829.24803,579.06677 830.10545,581.30118 865.72846,592.23109 879.89975,594.60781 904.84386,598.79128 905.01007,598.80362 928.14975,598.18835 949.62452,597.61735 960.44016,599.44766 949.36299,601.77823 948.38821,601.98331 946.41416,606.307 943.96486,613.60155 929.04806,658.02702 907.42342,689.60223 887.71378,695.73656 847.38626,708.2879 840.09673,746.23521 873.25947,770.98173 876.69475,773.54519 877.06022,774.22529 876.58293,777.16646 875.41449,784.36672 881.14922,800.60155 884.86106,800.60155 887.33754,800.60155 888.38183,802.31575 886.95367,804.03657 884.39575,807.11868 900.6714,816.19026 910.62572,817.2307 932.7432,819.54243 970.13447,790.28824 1002.8177,745.10155 1020.6097,720.5028 1033.3737,710.92122 1054.3865,706.39019 1170.5468,681.34231 1237.3268,822.81341 1150.151,909.26388 1145.0642,914.30838 1141.4314,918.61207 1142.0781,918.82764 1142.7248,919.04321 1142.9227,919.75553 1142.5178,920.41057 1141.6229,921.85864 1138.8998,921.99658 1138.8998,920.59383 1138.8998,920.03958 1136.2472,921.39676 1133.0051,923.60978 1092.2816,951.40742 1032.5956,956.05563 966.39975,936.58465 952.70176,932.55549 946.07213,933.90292 945.91463,940.7481 945.90644,941.10371 942.74975,944.54465 938.89975,948.39465 935.04975,952.24465 931.89975,956.11621 931.89975,956.9981 931.89975,957.88 931.21063,958.60155 930.36837,958.60155 929.5261,958.60155 928.59497,959.23221 928.29919,960.00301 928.00341,960.77381 926.90398,961.62869 925.85601,961.90274 924.80805,962.17679 922.99473,964.02113 921.82641,966.00128 920.65809,967.98143 919.18415,969.61001 918.55097,969.62034 917.9178,969.63067 912.89975,973.48449 907.39975,978.18437 896.79598,987.24556 887.23038,994.61355 877.39975,1001.2922 874.09975,1003.5341 870.13907,1006.5458 868.59823,1007.985 867.05739,1009.4241 865.39163,1010.6016 864.89653,1010.6016 864.40143,1010.6016 858.68711,1013.6911 852.19805,1017.4672 793.5651,1051.5867 725.3647,1068.2447 677.39975,1060.1617 z M 725.39975,1055.6009 C 802.87364,1047.1282 882.50489,1002.2917 944.45683,932.26035 950.50876,925.41916 950.50876,925.41916 964.95426,929.96592 1017.2153,946.41525 1055.5694,947.74881 1095.2178,934.49514 1184.3887,904.68709 1214.0897,800.75524 1151.3096,738.2142 1110.2345,697.29537 1043.9246,699.04636 1012.6646,741.87529 984.00141,781.14647 959.18399,805.38704 935.39975,817.34425 906.75045,831.74731 875.63475,815.96079 871.70265,785.02757 870.56801,776.10155 870.56801,776.10155 864.48388,771.60155 834.59919,749.49797 843.27168,705.86276 880.21727,692.4397 903.07313,684.13572 923.3035,656.74717 937.71188,614.60155 941.64341,603.10155 941.64341,603.10155 916.02158,603.01143 858.19741,602.80805 811.49178,584.81875 647.39975,499.54814 551.87432,449.90824 557.41658,452.40845 551.60179,456.33207 527.42296,472.64713 508.37517,506.17717 498.493,549.8201 497.97321,552.11565 498.33823,552.77694 500.83893,554.0701 505.88846,556.68131 506.20923,556.29938 509.84122,543.35155 521.25457,502.6636 535.92822,483.42926 553.54036,486.07037 575.08367,489.30098 579.36292,533.23598 563.29633,586.23471 559.88232,597.49648 559.88232,597.49648 567.69221,607.79901 583.76813,629.0058 599.51359,659.38771 596.16403,662.73727 594.42481,664.47649 592.537,662.7238 584.42522,651.83861 488.29634,522.84334 297.17785,579.71579 334.86642,726.10155 358.23642,816.87271 509.69235,848.95802 587.19002,779.55525 592.98028,774.3698 592.98028,774.3698 609.19002,773.46564 652.46842,771.05162 679.98521,762.64098 727.89975,737.18143 755.74627,722.38509 757.11311,721.75265 763.36235,720.77267 777.87317,718.49715 785.85426,726.30908 793.83714,750.60155 809.31671,797.70697 779.94311,860.74316 738.11134,870.18997 731.14388,871.76342 731.14388,871.76342 730.46899,879.50018 730.09781,883.75539 728.8884,890.58147 727.78142,894.66924 726.09413,900.89996 725.62285,907.11335 724.86634,933.10155 723.47963,980.73874 721.41167,993.91437 712.46705,1012.1016 687.67051,1062.5206 624.01265,1039.4171 584.15992,965.53483 579.53896,956.9681 579.53896,956.9681 563.46936,957.35695 549.6806,957.69061 546.33913,957.45963 539.92719,955.72957 535.81728,954.62065 532.28068,953.88728 532.06809,954.09987 531.12036,955.04761 545.83356,974.60155 547.49441,974.60155 548.26735,974.60155 548.90664,975.38905 548.91506,976.35155 548.9256,977.55535 549.17085,977.72314 549.70084,976.88915 550.8769,975.03851 554.89975,976.50593 554.89975,978.78557 554.89975,980.33591 554.45155,980.59407 552.71621,980.0433 549.49016,979.01939 554.30652,984.80227 566.54107,996.64245 611.37681,1040.033 669.72786,1061.6892 725.39975,1055.6009 z M 610.89975,1016.9082 C 600.42578,1010.394 588.61565,1001.0188 580.54771,992.81398 572.38001,984.50772 573.09184,981.90298 581.51724,989.26632 591.94055,998.37573 597.41232,1002.714 608.48308,1010.6462 614.57892,1015.0138 619.56642,1019.2656 619.56642,1020.0945 619.56642,1022.2214 619.26377,1022.1102 610.89975,1016.9082 z M 1060.6544,901.55321 C 967.88961,890.75077 1002.8357,769.15254 1099.2275,767.33472 1118.4924,766.97141 1121.6904,771.8942 1105.2516,776.60799 1087.429,781.71858 1073.0605,789.82053 1058.6498,802.88524 1047.7006,812.81175 1047.6462,812.60043 1061.1498,812.60713 1085.1542,812.61903 1087.6799,817.69462 1065.3998,821.14788 1009.6885,829.78274 1019.1456,885.05428 1077.1498,889.82015 1092.583,891.0882 1093.8793,892.01588 1087.9533,897.55154 1083.1985,901.99317 1074.8906,903.211 1060.6544,901.55321 z M 1069.8998,894.97488 C 1056.7885,893.07514 1046.4561,889.76637 1041.5388,885.89277 1039.9966,884.67793 1037.8719,883.41011 1036.8173,883.07538 1035.7627,882.74065 1034.8998,881.84754 1034.8998,881.0907 1034.8998,880.33386 1033.5498,878.91716 1031.8998,877.94248 1030.2498,876.9678 1028.8998,875.52471 1028.8998,874.73561 1028.8998,873.94652 1027.7339,870.91792 1026.3089,868.00539 1016.8475,848.66694 1026.1126,828.46163 1048.3886,819.85406 1054.3998,817.53132 1054.3998,817.53132 1048.858,817.9727 1039.3831,818.72732 1037.9352,816.05304 1043.8932,808.80316 1045.8179,806.46116 1046.46,804.75212 1046.1077,802.90903 1045.6615,800.57482 1045.8696,800.36263 1048.1733,800.803 1050.2223,801.1947 1052.1026,800.10572 1057.5674,795.36239 1066.2157,787.85587 1077.675,780.76129 1088.1032,776.45732 1101.1669,771.06562 1088.5523,771.67956 1070.3998,777.31893 993.57361,801.1862 993.97512,896.80956 1070.8998,896.39696 1079.3998,896.35137 1079.3998,896.35137 1069.8998,894.97488 z M 687.35838,690.72189 C 652.92062,675.07898 681.91855,542.60155 719.78037,542.60155 740.91664,542.60155 748.13542,571.63124 738.80353,619.10155 728.72053,670.39271 707.53483,699.88678 687.35838,690.72189 z M 702.72723,683.61156 C 736.29534,659.29495 750.39022,549.03979 720.03247,548.24378 689.54382,547.44433 661.99647,667.20007 688.62935,684.76159 692.82178,687.52605 697.89471,687.11223 702.72723,683.61156 z M 548.71617,1044.2081 C 548.23711,1040.5845 508.95485,1002.8822 505.78871,1003.0072 503.74815,1003.0878 503.39975,1002.6349 503.39975,999.90155 503.39975,997.26263 501.87943,995.07092 494.72892,987.40155 489.95997,982.28655 482.75997,974.15165 478.72892,969.324 473.95208,963.60316 471.28344,961.09768 471.06577,962.12934 470.5025,964.79892 468.40591,963.12082 468.29975,959.91543 468.16086,955.72168 467.23513,954.60155 463.90812,954.60155 460.89058,954.60155 458.32541,950.62633 460.80879,949.79854 462.57937,949.20834 460.10752,946.60155 457.77731,946.60155 456.74465,946.60155 455.89975,945.97469 455.89975,945.20854 455.89975,944.44238 455.19594,943.54545 454.33574,943.21536 453.47553,942.88527 452.85235,941.82462 452.95089,940.85837 453.26292,937.79878 452.94018,937.32311 451.41248,938.59098 449.42054,940.24414 446.89975,939.15039 446.89975,936.63293 446.89975,934.78453 447.96752,934.10943 450.24812,934.51592 450.71473,934.59909 450.15223,933.46669 448.99812,931.99948 443.97107,925.60862 446.44001,923.05168 455.56338,925.20025 460.98903,926.478 465.19401,926.6732 475.94074,926.14619 491.97488,925.3599 489.50881,923.6999 500.38659,942.60155 516.02888,969.78218 530.67186,989.6485 553.63769,1014.848 571.96871,1034.9619 571.98488,1035.2321 555.38572,1044.058 549.50253,1047.1861 549.11104,1047.1949 548.71617,1044.2081 z M 558.59399,1035.1282 C 561.39975,1032.6548 561.39975,1032.6548 557.89975,1029.9342 542.77012,1018.174 485.54954,953.59526 487.48462,950.46422 488.45776,948.88965 490.90105,951.17396 503.94284,965.85155 510.66251,973.41405 516.3509,979.60155 516.58371,979.60155 516.81652,979.60155 514.06877,975.43905 510.47762,970.35155 506.88646,965.26405 500.36288,954.76536 495.98078,947.02113 486.74938,930.707 486.85214,930.81276 480.76726,931.36433 476.79541,931.72436 476.20595,932.05644 476.63389,933.6929 477.3003,936.24127 474.45884,936.23784 472.67294,933.68812 471.5952,932.14943 469.84231,931.70878 463.72245,931.43812 454.81897,931.04436 454.24732,929.42788 469.96901,949.10155 494.32469,979.57953 550.02896,1037.6015 554.93378,1037.6015 555.40373,1037.6015 557.05082,1036.4885 558.59399,1035.1282 z M 666.8202,1018.5912 C 651.34341,1015.9717 630.31273,998.53469 631.29252,989.13439 633.06807,972.09956 650.51531,950.02131 666.08934,945.10147 693.16757,936.54746 704.90261,937.41252 704.89854,947.96233 704.8888,973.16178 696.91934,1003.3523 687.7685,1012.8556 681.79475,1019.0594 677.13106,1020.3364 666.8202,1018.5912 z M 678.84904,1012.1278 C 689.80684,1006.4613 697.27792,984.12373 699.09282,951.60155 699.5069,944.18143 694.37406,942.89884 680.3021,946.90616 675.40581,948.30049 669.40166,949.96775 666.95954,950.61119 662.12284,951.88554 650.97419,961.67203 646.02714,968.98603 644.58208,971.1225 642.60295,974.0475 641.62908,975.48603 636.018,983.77438 635.37984,991.74129 640.00132,995.80734 656.19792,1010.0574 670.90479,1016.2359 678.84904,1012.1278 z M 618.76512,980.89583 C 611.60185,973.17846 596.53738,947.15239 597.07607,943.42483 598.05888,936.62405 604.78779,935.26277 616.56588,939.48195 626.57762,943.06839 631.47865,944.28998 643.14975,946.10803 648.55316,946.94973 648.07494,949.41096 640.64975,958.9745 637.21225,963.40195 632.56235,970.64177 630.31665,975.06298 625.56291,984.42186 623.16286,985.63374 618.76512,980.89583 z M 626.55406,969.35155 C 628.25002,965.91405 631.70895,960.55993 634.24057,957.45351 638.84352,951.80548 638.84352,951.80548 630.62163,949.6643 626.0996,948.48665 618.71894,946.21897 614.22016,944.62503 601.38509,940.07747 600.90239,942.83422 611.52269,960.03051 622.56932,977.91711 622.38458,977.80255 626.55406,969.35155 z M 943.9111,981.7845 C 938.30101,980.68625 939.17716,978.70084 950.96716,965.79516 963.81322,951.73348 961.99931,952.2872 978.26518,957.46208 984.93919,959.58537 994.44975,962.08511 999.39975,963.01705 1004.3497,963.949 1010.7232,965.16056 1013.5631,965.70942 1025.4369,968.00432 1019.6444,975.0881 1002.0688,979.76593 994.01912,981.90839 951.99485,983.36699 943.9111,981.7845 z M 984.50453,976.58732 C 995.68461,975.70799 1011.9191,972.28762 1010.6999,971.06836 1010.4736,970.8421 1005.5885,969.74743 999.84413,968.63577 994.09972,967.5241 984.6757,965.26163 978.90186,963.60805 964.95047,959.6125 965.37666,959.53685 957.81263,967.35155 947.06868,978.45156 946.87633,977.60155 960.13209,977.60155 966.44456,977.60155 977.41216,977.14515 984.50453,976.58732 z M 547.25995,929.12522 C 531.52664,926.26972 522.87618,921.8864 512.89975,911.7144 505.39975,904.06737 505.39975,904.06737 501.39975,905.4083 465.49402,917.44501 433.06363,897.98292 432.05425,863.79275 431.69086,851.48395 431.69086,851.48395 426.2953,849.09778 421.79833,847.109 420.89975,846.28609 420.89975,844.15658 420.89975,841.00264 420.82106,841.00546 445.89975,843.26208 501.62225,848.27607 548.04624,835.59443 575.72742,807.79705 584.05509,799.43442 584.05509,799.43442 607.72742,798.57897 660.10597,796.68615 694.67158,786.4375 738.86613,759.69655 762.51014,745.39018 768.45437,749.82147 769.5914,782.60155 771.01887,823.75457 750.73875,849.56066 711.89651,856.01726 708.39328,856.59959 708.39328,856.59959 708.28035,868.35057 707.78887,919.49619 655.02175,944.99847 608.35219,916.64573 602.67126,913.19444 601.85588,912.95139 600.69689,914.36384 591.27763,925.8431 566.65397,932.64512 547.25995,929.12522 z M 570.51948,924.04507 C 579.46294,922.19775 583.98592,920.00317 593.48877,912.90025 601.91356,906.60313 602.41361,906.55396 610.16194,911.26082 656.15425,939.19967 703.88737,915.11636 703.13614,864.35155 703.03236,857.33905 703.06103,851.60155 703.19984,851.60155 717.20012,851.60155 741.99681,841.77041 743.61625,835.57767 743.89094,834.52723 744.95997,833.39982 745.99187,833.07231 761.89285,828.02554 771.64711,772.48427 759.08803,758.50204 756.39975,755.50914 756.39975,755.50914 743.39975,763.59385 700.85497,790.0525 661.38962,801.95918 610.99788,803.53944 586.03872,804.32214 584.88482,804.69002 579.32813,813.63634 577.85172,816.01336 564.01283,826.08956 556.89975,829.96661 530.59762,844.30281 493.68619,850.97673 452.35762,848.86877 437.31548,848.10155 437.31548,848.10155 437.35762,860.60155 437.4685,893.49672 471.73778,914.47888 500.98427,899.55843 506.29688,896.84814 507.66535,897.44154 514.88667,905.5868 529.10639,921.62587 549.48986,928.38886 570.51948,924.04507 z M 904.39975,800.28635 C 893.29724,794.91249 890.25015,787.28486 893.07704,771.94278 894.5696,763.84237 892.77951,760.75019 885.5418,758.92649 857.78308,751.93209 862.18273,718.84285 892.02495,710.16748 917.00577,702.90536 943.21035,664.21612 962.00178,606.85155 967.82682,589.06946 968.0202,589.10937 982.59287,611.10155 1015.2223,660.34382 1022.7667,679.35902 1015.5526,694.17413 983.6411,759.70905 928.77676,812.08536 904.39975,800.28635 z M 922.74449,794.09389 C 951.0537,780.91519 989.97044,735.00461 1011.1582,689.79104 1014.7884,682.04438 1014.9794,681.20495 1013.7795,678.26861 1011.69,673.15532 996.87724,645.46044 993.90047,641.10155 992.39805,638.90155 989.96809,634.72407 988.50056,631.81827 984.82249,624.53543 979.0194,615.60155 977.96685,615.60155 977.48755,615.60155 976.59953,614.17911 975.99348,612.44057 971.69179,600.10074 969.97197,601.16403 963.43159,620.20704 954.24286,646.96101 948.17782,659.70849 935.78078,678.32344 920.57926,701.14951 910.55086,710.04795 893.8361,715.54202 868.86804,723.7489 864.82337,747.28055 887.29919,753.57339 897.50178,756.42994 900.99315,762.59329 898.2988,772.99114 893.90941,789.93034 907.14493,801.35591 922.74449,794.09389 z M 909.29233,787.64615 C 904.22858,785.54448 903.17221,775.31721 906.54194,761.01822 908.53316,752.56874 910.40111,760.36113 908.88962,770.81191 905.90777,791.4292 920.7985,787.72794 949.36462,760.75139 961.63183,749.16679 964.89975,746.90092 964.89975,749.97982 964.89975,760.50511 918.92731,791.64508 909.29233,787.64615 z M 1198.7475,756.85155 C 1197.358,755.33905 1193.7082,750.50155 1190.637,746.10155 1159.1366,700.97234 1116.6518,682.12936 1065.6693,690.67556 1054.624,692.52709 1051.4191,692.75862 1050.0824,691.80156 1049.157,691.13893 1047.3873,690.15899 1046.1498,689.62391 1043.3759,688.42455 1042.8923,684.00402 1045.6498,685.05381 1047.0133,685.57293 1047.1351,685.45338 1046.2014,684.51242 1045.5423,683.84823 1043.7423,683.25907 1042.2014,683.20317 1040.0449,683.12495 1039.322,682.55131 1039.0619,680.71195 1038.7831,678.73989 1039.0772,678.41468 1040.7449,678.8508 1043.2364,679.50234 1042.9711,678.69536 1036.3464,665.47214 1030.0688,652.94173 1028.3864,650.66153 1025.8985,651.31212 1023.625,651.90665 1022.9068,648.10305 1025.1497,647.3467 1027.4762,646.5622 1020.9691,634.60155 1018.2159,634.60155 1015.8535,634.60155 1014.7681,631.14544 1016.9066,630.43259 1019.1955,629.66965 1001.5915,602.77976 998.91196,602.94584 996.68508,603.08387 996.39495,602.70403 996.3575,599.60155 996.18793,585.55649 889.52062,464.70304 886.06642,474.6424 885.39569,476.5724 882.89975,475.55497 882.89972,473.35155 882.89969,470.81306 876.40626,464.97298 875.3979,466.60454 874.09047,468.72001 871.89975,467.58341 871.89975,464.78961 871.89975,461.62786 873.11732,462.66021 851.39975,447.4082 834.29524,435.39588 817.26837,424.48838 804.89975,417.62004 769.38127,397.89652 770.83833,399.42818 778.33096,389.69095 794.29749,368.94124 803.90341,337.25211 802.45553,310.106 800.99737,282.76721 784.1024,239.55935 773.81916,236.87022 772.79991,236.60369 771.68363,235.49599 771.33853,234.40867 770.99343,233.32136 769.40353,231.97593 767.80541,231.41882 765.89285,230.7521 764.89975,229.71642 764.89975,228.3886 764.89975,225.99529 758.2579,219.60155 755.77172,219.60155 754.81626,219.60155 753.76093,218.73954 753.42654,217.68597 753.09215,216.6324 751.14933,214.89313 749.10916,213.82094 747.06898,212.74874 742.47475,210.26567 738.89975,208.303 729.88321,203.35293 715.98668,198.36292 713.17981,199.0674 711.89374,199.39018 709.88273,198.98128 708.58976,198.13409 704.29304,195.31878 676.84387,194.71511 677.37008,197.4475 677.67986,199.05602 677.29294,199.60155 675.84233,199.60155 674.77391,199.60155 673.89975,199.12499 673.89975,198.54253 673.89975,197.96007 674.41928,197.8046 675.05426,198.19704 675.71059,198.60267 675.93942,198.47476 675.58458,197.90061 668.99408,187.23695 603.08522,227.20233 595.84153,246.25468 595.35078,247.54546 594.50224,248.60155 593.95589,248.60155 593.40953,248.60155 593.22139,249.27617 593.5378,250.1007 593.88515,251.00589 592.86991,252.76115 590.97532,254.53095 581.9897,262.92478 572.69009,295.53983 572.49291,319.35141 572.39975,330.60127 572.39975,330.60127 569.39975,330.53721 565.51844,330.45432 555.79899,328.35015 554.0177,327.20713 551.65252,325.68944 554.78437,299.87686 559.9963,277.93186 561.90528,269.89404 561.92238,269.33859 560.2975,268.15044 558.00848,266.47667 559.19047,263.18281 561.83222,263.87364 563.20929,264.23375 563.90054,263.73453 564.3158,262.07999 564.63228,260.81904 565.16059,258.95805 565.48982,257.94445 565.98669,256.41473 565.90505,256.35646 565.0094,257.60155 564.07667,258.89817 563.9283,258.86428 563.91506,257.35155 563.90664,256.38905 564.46225,255.59358 565.14975,255.58383 565.83725,255.57409 568.62684,250.06159 571.34884,243.33383 574.07084,236.60608 578.00834,228.13152 580.09884,224.50149 582.18934,220.87145 583.89975,217.15895 583.89975,216.25149 583.89975,215.34402 584.52784,214.60155 585.2955,214.60155 586.06317,214.60155 588.04725,212.46405 589.70456,209.85155 595.54858,200.63937 596.69955,198.00508 596.1459,195.10885 595.62509,192.38445 595.71535,192.31467 598.92861,192.95732 603.25899,193.8234 608.01856,190.14013 605.21659,188.09128 603.0997,186.54337 604.182,183.60155 606.86837,183.60155 608.12813,183.60155 608.90794,184.26628 608.92132,185.35155 608.93631,186.56734 610.48593,185.49718 613.99765,181.84589 616.77776,178.95527 619.91805,176.12694 620.97607,175.5607 623.44619,174.23874 623.45291,172.60155 620.98823,172.60155 619.70679,172.60155 619.18714,172.02472 619.41172,170.85155 619.59598,169.88905 619.78116,168.76405 619.82324,168.35155 619.93858,167.22095 622.8809,167.45071 623.02475,168.60155 623.0935,169.15155 623.22645,170.16405 623.3202,170.85155 623.65742,173.32443 637.82833,165.53655 644.03962,159.46483 647.0779,156.49482 648.49581,155.94668 649.06642,157.52155 649.24975,158.02754 651.9537,157.36029 655.0752,156.03878 676.65985,146.90067 715.88665,142.35729 743.14975,145.83768 749.06225,146.59247 753.89975,146.84812 753.89975,146.40579 753.89975,145.96346 755.02475,145.60156 756.39975,145.60156 757.86431,145.60156 758.89975,146.1758 758.89975,146.98802 758.89975,147.87026 760.58276,148.62686 763.5276,149.06846 766.07292,149.45016 768.77292,149.9994 769.5276,150.28899 770.33966,150.60061 770.89975,150.15959 770.89975,149.20855 770.89975,148.32471 771.60775,147.60156 772.47307,147.60156 773.43357,147.60156 773.91475,148.28321 773.70842,149.35156 773.42638,150.81194 775.77256,151.78365 787.8851,155.22304 809.90631,161.47602 838.52585,172.79348 856.05404,182.18013 857.5139,182.96191 859.4264,183.60155 860.30404,183.60155 861.18168,183.60155 861.89975,184.28036 861.89975,185.11002 861.89975,186.32318 862.25914,186.39406 863.73548,185.47207 865.30067,184.49459 866.24704,185.00147 870.15714,188.91157 872.6794,191.43384 877.84173,195.05796 881.62897,196.96519 885.41622,198.87241 889.08606,201.12111 889.78417,201.96229 890.48229,202.80347 893.38139,204.97053 896.22661,206.77799 906.45396,213.27501 931.53148,234.30091 941.66939,244.87886 944.69633,248.03718 946.49365,249.25864 946.97293,248.48314 947.37166,247.83798 948.41832,247.58657 949.29883,247.92445 951.08064,248.6082 951.51083,251.60155 949.82727,251.60155 948.47203,251.60155 950.41275,253.96929 966.30274,271.70213 980.26527,287.28396 996.55474,306.40518 1001.4742,312.98774 1018.8528,336.24162 1039.4317,369.1162 1056.6319,401.10155 1061.9661,411.02106 1082.8998,454.75915 1082.8998,455.98477 1082.8998,456.33599 1083.7328,458.53094 1084.7509,460.86245 1088.0439,468.40346 1093.8581,483.85152 1097.2528,494.07962 1100.2246,503.03316 1100.8128,504.05995 1102.9822,504.07962 1104.9969,504.0979 1105.3998,504.60153 1105.3998,507.10155 1105.3998,509.18268 1104.9276,510.06964 1103.8581,509.99737 1102.6066,509.91281 1102.9478,511.70146 1105.67,519.49737 1112.9438,540.32816 1121.0452,572.59187 1126.2862,601.60155 1129.6163,620.0338 1130.1288,621.08584 1133.2093,615.81134 1135.0294,612.69482 1135.0664,611.74458 1133.909,597.81134 1131.8867,573.46367 1132.0859,573.15802 1146.2703,578.85335 1150.905,580.71429 1154.5224,581.75642 1154.3089,581.16921 1153.6581,579.3788 1155.5992,577.27222 1157.2989,577.92445 1158.2796,578.30078 1158.8998,579.71316 1158.8998,581.57017 1158.8998,583.26709 1159.4501,584.65233 1160.1498,584.7169 1160.8373,584.78034 1161.8801,584.89284 1162.4672,584.9669 1163.0542,585.04096 1164.3386,585.90386 1165.3215,586.88445 1166.3043,587.86505 1168.8255,589.54331 1170.924,590.61392 1173.0226,591.68453 1177.7245,594.81973 1181.3727,597.58102 1188.7668,603.17761 1188.8998,603.23852 1188.8998,601.02823 1188.8998,598.88633 1192.281,599.62682 1192.7116,601.86303 1192.9292,602.99288 1192.4182,603.60155 1191.252,603.60155 1190.0034,603.60155 1191.4238,605.58536 1195.9214,610.12336 1199.4765,613.71036 1202.5385,616.18536 1202.7259,615.62336 1203.262,614.01481 1206.8998,614.43157 1206.8998,616.10155 1206.8998,616.92655 1206.1699,617.60155 1205.2778,617.60155 1203.8711,617.60155 1203.8379,617.84945 1205.0278,619.46985 1205.7824,620.49742 1208.7359,624.71304 1211.5912,628.83791 1214.4465,632.96277 1217.727,636.5846 1218.8812,636.88643 1220.5394,637.32006 1220.8497,637.95289 1220.3604,639.90265 1219.9748,641.43873 1220.4728,643.82926 1221.6797,646.23582 1231.1427,665.10592 1231.0963,703.55039 1221.5807,728.10155 1216.7592,740.54162 1216.4593,741.4517 1217.7902,739.60155 1218.7229,738.30493 1218.8713,738.33882 1218.8845,739.85155 1218.8929,740.81405 1218.2831,741.60155 1217.5293,741.60155 1216.7755,741.60155 1213.8191,745.20252 1210.9595,749.6037 1206.5829,756.3398 1203.5465,759.60155 1201.6526,759.60155 1201.4444,759.60155 1200.1371,758.36405 1198.7475,756.85155 z M 1212.9441,733.09605 C 1238.7949,678.95952 1216.2783,620.0693 1158.4765,590.64061 1138.3987,580.41836 1137.5219,580.48859 1138.8649,592.21155 1141.2583,613.10285 1139.9047,620.17173 1132.6589,624.6212 1126.1392,628.62488 1125.1063,626.92968 1121.3758,606.10155 1110.0801,543.03702 1087.3722,475.54909 1057.4456,416.10155 1046.0081,393.38142 1033.5624,371.19027 1033.0664,372.63238 1032.4267,374.49253 1029.8998,373.58459 1029.8998,371.49456 1029.8998,370.05815 1030.3644,369.56589 1031.3598,369.94784 1034.4086,371.11778 1005.8072,328.91162 990.61727,309.82534 936.22956,241.48692 892.64495,205.1857 831.71936,177.48077 687.62869,111.95785 580.2245,165.23816 559.37458,312.58366 557.98578,322.39825 558.24504,323.52931 561.89975,323.59989 562.72475,323.61582 564.41225,323.9002 565.64975,324.23184 567.88766,324.83157 567.89975,324.77297 567.89975,313.32826 567.89975,195.75579 720.73244,145.52778 785.66869,241.75913 814.74676,284.85098 814.27203,357.18159 784.68592,391.49234 779.74436,397.22303 779.43444,396.64263 790.64975,402.66091 808.78936,412.39486 856.21299,441.87107 861.89975,446.94643 862.72475,447.68273 868.79975,452.49573 875.39975,457.64199 947.753,514.05838 998.75916,577.39015 1042.9218,665.64563 1050.879,681.54735 1054.3911,687.62699 1055.3971,687.24094 1093.8013,672.5039 1154.9731,691.63341 1184.3787,727.57572 1190.2643,734.76975 1190.2643,734.76975 1192.053,732.43565 1195.5666,727.85068 1199.9254,718.71874 1202.7711,709.98063 1204.721,703.99301 1206.2097,700.99242 1207.3425,700.76642 1210.7157,700.09348 1205.7539,716.54392 1198.4325,730.30664 1193.4301,739.71032 1193.4173,739.45287 1199.2768,747.26552 1202.8466,752.02521 1204.9432,749.85159 1212.9441,733.09605 z M 301.39975,607.51135 C 269.85375,603.27795 252.2836,588.44898 247.31628,561.86565 244.1221,544.77148 245.0723,544.00049 263.25923,548.92946 284.46894,554.67766 305.84222,551.81964 326.5218,540.47003 335.2828,535.66171 335.52185,534.80586 327.31383,537.6344 291.76342,549.88533 251.76752,541.9169 228.89975,518.02726 224.77475,513.71793 219.44503,508.2264 217.05603,505.82387 214.66703,503.42134 212.96153,501.20641 213.26613,500.9018 214.00963,500.15837 211.43423,495.29003 209.40793,493.60832 208.51483,492.86716 207.13663,490.71082 206.34503,488.81644 205.55353,486.92206 202.45623,481.26124 199.46213,476.23683 168.14643,423.68566 164.21123,363.89826 189.47373,324.48608 191.90803,320.68834 193.89973,317.1357 193.89973,316.59132 193.89973,316.04695 194.23723,315.59913 194.64973,315.59617 195.06223,315.59321 199.22473,312.16305 203.89973,307.9736 230.05595,284.53398 261.09127,271.22237 297.03691,268.02538 304.67407,267.34614 304.67407,267.34614 311.30315,260.02681 333.31085,235.72762 366.60324,228.49413 391.39975,242.62411 406.83393,251.41908 406.83393,256.91737 391.39975,260.59788 334.62183,274.13741 302.98453,308.25135 316.70152,341.14365 317.92742,344.08327 317.79945,344.3696 312.90252,349.64365 298.6371,365.00768 293.8007,381.5026 299.8795,394.05972 304.22739,403.04127 303.52483,405.50849 295.39975,409.79146 276.19629,419.91416 244.75123,423.54115 222.39973,418.21154 216.39973,416.78086 216.39973,416.78086 220.89973,420.68456 242.01461,439.00146 272.11674,440.91217 307.29747,426.16858 320.96031,420.44274 319.47351,420.26314 330.26891,428.94334 366.71485,458.24821 402.59638,474.34493 470.26582,491.74694 477.14657,493.51641 474.31947,521.48284 465.20079,541.85155 462.62662,547.60155 462.62662,547.60155 441.51319,547.60437 415.68413,547.60781 405.40543,548.75759 392.25548,553.11435 362.84846,562.85729 341.68254,578.22933 320.15211,605.48043 317.90175,608.3287 312.14018,608.9527 301.39975,607.51135 z M 320.37049,595.55204 C 351.18259,558.56226 383.2256,543.57489 434.76631,542.04607 463.18151,541.2032 463.99269,540.43048 467.87699,510.50531 469.74842,496.08752 470.8377,497.58143 455.64975,493.73604 402.5911,480.30228 357.84324,459.55612 326.68807,433.94636 318.97639,427.6073 318.97639,427.6073 310.18807,431.45724 280.46808,444.4768 254.04728,445.02054 229.36258,433.12063 217.61183,427.45587 210.89973,420.73892 210.89973,414.64439 210.89973,409.77318 210.90503,409.77242 223.94653,412.78581 245.79219,417.83348 268.81215,415.46616 289.58628,406.03557 296.77282,402.77318 296.77282,402.77318 294.7343,397.43737 288.60189,381.38578 293.60645,359.8727 306.31502,347.65538 309.89975,344.20922 309.89975,344.20922 309.91711,331.15538 309.97055,290.98148 339.28935,263.07849 389.96233,254.97555 395.46775,254.0952 395.62453,253.13912 390.83266,249.66791 368.64856,233.59783 334.41055,240.88423 314.04468,266.00963 308.14383,273.28951 308.24955,273.24434 295.30693,274.01559 255.24777,276.4027 210.99303,301.51113 191.16533,333.10155 166.05493,373.10863 179.11983,442.978 222.67333,501.60155 251.41359,540.28635 292.56301,548.05443 344.07815,524.52005 360.15555,517.17519 362.54422,518.76013 351.64975,529.54399 328.40046,552.55725 290.9015,562.78008 260.64975,554.35209 250.34515,551.48128 250.58603,551.14503 253.83814,563.86066 259.24371,584.99625 274.15607,597.29018 299.5595,601.55392 312.55309,603.73478 313.87095,603.35471 320.37049,595.55204 z M 949.67138,583.03985 C 949.36244,582.73091 935.44994,582.38103 918.75471,582.26233 888.51318,582.04732 868.26921,579.15112 857.78385,573.53952 856.53156,572.86932 856.16345,573.07251 856.2653,574.37772 856.35068,575.47174 855.55064,576.22104 854.07341,576.43062 852.1617,576.70184 851.80524,576.36279 852.07341,574.52833 852.40247,572.2774 838.13198,566.35747 834.94095,567.42115 834.30464,567.63325 833.02256,567.1436 832.09189,566.33303 831.16121,565.52246 826.57475,563.3902 821.89975,561.59467 817.22475,559.79914 810.98287,557.26615 808.02891,555.96581 805.07494,554.66547 801.58744,553.60155 800.27891,553.60155 798.97037,553.60155 797.89975,553.22847 797.89975,552.77249 797.89975,552.3165 795.76225,551.01649 793.14975,549.88357 786.5619,547.02673 783.86471,545.75649 780.48126,543.91733 778.17756,542.66509 777.16838,542.5772 775.69058,543.50011 773.47256,544.88528 771.89975,544.15951 771.89975,541.75085 771.89975,539.29026 761.98967,534.50202 759.78567,535.89772 757.40032,537.40826 754.6305,536.02525 755.37065,533.69324 756.0634,531.51059 746.34662,527.1091 743.36299,528.25403 742.28954,528.66595 741.59789,528.16326 741.21299,526.69138 740.49656,523.95174 735.83088,521.39998 733.84062,522.65926 731.49904,524.14082 729.89975,523.73663 729.89975,521.66329 729.89975,520.17 729.26865,519.76824 727.15077,519.91329 725.02841,520.05864 724.33186,519.61271 724.09504,517.95702 723.58016,514.3574 665.26671,484.71744 663.48731,487.15091 661.55581,489.79241 658.50429,488.31334 659.30484,485.12368 659.89962,482.75387 656.30023,479.60155 652.99954,479.60155 652.4498,479.60155 650.06495,478.31994 647.69988,476.75353 642.95523,473.6111 590.88433,447.36128 586.89975,446.10315 585.52475,445.669 583.04975,444.30965 581.39975,443.08238 577.19272,439.9532 571.29552,437.35155 568.40955,437.35155 566.94084,437.35155 565.34513,436.40404 564.4098,434.97655 563.55392,433.6703 562.33675,432.60155 561.70498,432.60155 561.07322,432.60155 555.12109,429.84938 548.47803,426.48561 541.83498,423.12185 533.47475,419.26093 529.89975,417.90579 526.32475,416.55065 522.04975,414.63027 520.39975,413.63827 515.50558,410.69586 489.50468,402.28675 489.0956,403.51401 488.42308,405.53157 484.86996,404.6534 483.95358,402.24313 483.06551,399.90735 475.36034,396.87371 474.6939,398.59747 473.74898,401.04156 467.63273,400.7787 468.10384,398.31425 468.55473,395.95558 468.22345,395.7363 462.49138,394.59928 459.14098,393.9347 454.59975,392.77228 452.39975,392.01614 438.16489,387.12362 393.10683,380.95049 353.89975,378.52126 343.10004,377.85212 334.25511,376.82972 332.64975,376.06493 331.13725,375.34438 329.89975,375.17035 329.89975,375.67819 329.89975,376.18604 329.22475,376.60155 328.39975,376.60155 327.57475,376.60155 326.90664,376.03905 326.91506,375.35155 326.93852,373.43636 328.70177,371.07024 329.50612,371.87458 329.89943,372.2679 330.72174,371.58577 331.33348,370.35875 334.76097,363.48388 380.554,344.29561 398.89975,342.04701 401.92475,341.67624 404.84975,341.08684 405.39975,340.73722 405.94975,340.3876 408.64975,340.03147 411.39975,339.94581 414.14975,339.86016 428.32475,338.85054 442.89975,337.70222 503.88543,332.89732 549.42583,337.64487 610.64975,355.19002 612.32113,355.66899 612.89975,355.41907 612.89975,354.21818 612.89975,353.32903 612.44975,352.60155 611.89975,352.60155 611.34975,352.60155 610.89975,351.92655 610.89975,351.10155 610.89975,350.27655 611.57475,349.60155 612.39975,349.60155 613.22475,349.60155 613.89975,350.27655 613.89975,351.10155 613.89975,351.92655 614.34975,352.60155 614.89975,352.60155 616.312,352.60155 616.14805,355.35212 614.70718,355.83241 614.05126,356.05105 616.41376,357.03063 619.95718,358.00927 641.05366,363.83577 686.1918,379.59932 706.64975,388.28483 707.36436,388.58823 707.89975,388.09583 707.89975,387.13521 707.89975,386.07319 708.54369,385.57891 709.64975,385.79192 710.61595,385.97799 711.39975,387.01858 711.39975,388.11525 711.39975,390.69174 721.19484,395.35011 721.72307,393.02483 722.15507,391.12319 725.89975,391.19198 725.89975,393.10155 725.89975,393.92655 725.11225,394.61771 724.14975,394.63747 722.25636,394.67633 733.28633,400.08889 741.39975,403.10229 744.14975,404.12366 747.52475,405.71005 748.89975,406.62758 756.25294,411.53436 786.74405,425.45503 788.90223,424.89065 790.86547,424.37725 791.13398,424.59783 790.6763,426.348 790.21226,428.12252 792.70831,429.9936 808.56278,439.75594 848.14913,464.1311 884.35581,492.69599 925.39975,531.93328 965.23006,570.01034 969.22417,576.05014 956.62337,579.14886 955.09636,579.52437 953.39303,580.67984 952.83819,581.71658 951.82278,583.61389 950.71028,584.07875 949.67138,583.03985 z M 939.89975,576.67278 C 944.39975,575.85188 944.39975,575.85188 939.89975,575.64777 937.42475,575.53551 936.01317,575.19971 936.7629,574.90155 937.83994,574.47323 937.86125,574.19579 936.86445,573.57973 936.15293,573.13999 939.04676,572.50418 943.50129,572.12153 947.84544,571.74837 952.22809,571.21043 953.24052,570.92611 956.68625,569.95843 900.36187,515.40142 872.45744,492.67787 841.31442,467.31703 787.47848,431.93907 760.89975,419.36842 639.67186,362.0326 546.8687,337.63332 465.09671,341.59759 420.0979,343.77911 399.47325,346.54967 378.89975,353.17663 366.94278,357.02811 337.6036,371.0989 339.89975,371.88065 340.72475,372.16153 352.19975,373.14049 365.39975,374.05611 466.2371,381.0507 499.44236,392.94181 679.89975,486.68142 832.65625,566.03164 889.80347,585.81147 939.89975,576.67278 z M 891.32648,568.60035 C 859.0971,560.0688 798.23308,535.63952 798.23308,531.23501 798.23308,529.14089 798.89586,529.34343 814.89975,536.32804 840.96057,547.70184 871.28039,558.65752 896.89975,565.95772 902.16156,567.45706 905.39975,568.89301 905.39975,569.72697 905.39975,571.89356 903.05934,571.7062 891.32648,568.60035 z M 744.39975,390.51772 C 727.86761,382.87706 687.45134,366.70456 674.39975,362.50736 668.89975,360.73864 663.27475,358.73696 661.89975,358.0592 657.56555,355.92277 617.04389,342.94654 601.39975,338.6853 575.81654,331.71681 576.3918,286.67645 602.50794,251.91827 603.82344,250.16747 604.89975,248.30864 604.89975,247.78753 604.89975,244.42709 629.10808,223.92173 639.89975,218.14123 643.47475,216.2263 645.83725,214.64649 645.14975,214.63054 643.35415,214.58889 643.60071,211.60155 645.39975,211.60155 646.22475,211.60155 646.89975,212.2207 646.89975,212.97743 646.89975,214.04369 648.37009,213.81962 653.43331,211.98176 751.54006,176.37093 832.23177,291.58576 772.33409,381.75301 761.11636,398.63967 761.62675,398.47954 744.39975,390.51772 z M 764.7098,382.04039 C 834.8879,290.3361 729.72169,165.31318 635.26916,228.15973 594.01886,255.60673 571.72176,324.86059 601.57723,332.80544 609.23247,334.84258 616.37422,336.81663 617.4478,337.19222 618.52137,337.56781 615.46225,333.86716 610.64975,328.96855 605.83725,324.06994 601.89975,319.56372 601.89975,318.95474 601.89975,317.66684 653.31128,239.99523 661.43268,229.01347 669.81994,217.67221 668.92918,216.69968 681.22746,250.62539 685.90811,263.53728 690.23129,275.38704 690.83453,276.95819 692.14156,280.36236 689.66871,281.98254 719.15764,258.40125 740.01205,241.7247 742.47304,240.44627 743.31591,245.85155 743.86225,249.35529 746.18562,289.24505 747.96093,325.60155 749.94173,366.16649 749.07886,367.24068 714.26638,367.54749 705.94108,367.62087 706.31906,370.60015 709.96957,333.67996 711.02575,322.99808 711.77961,314.16702 711.64482,314.05538 711.51003,313.94374 704.64975,319.43878 696.39975,326.26658 672.37246,346.15185 675.28221,347.03928 664.82638,316.63719 658.47616,298.17283 658.47616,298.17283 647.74959,320.13193 640.40058,335.17662 637.39721,342.29554 638.21139,342.74052 638.86499,343.09773 650.42475,347.33026 663.89975,352.14613 689.43471,361.27215 726.16787,375.76271 745.89975,384.49365 759.50329,390.51292 758.08445,390.69797 764.7098,382.04039 z M 727.93991,361.07632 C 745.45616,358.74503 743.8954,359.64749 743.92675,351.8325 743.95758,344.14853 738.78938,251.29961 738.29878,250.72342 737.86759,250.217 720.17339,264.6441 716.46266,268.52766 714.84726,270.2183 713.11436,271.60155 712.61176,271.60155 712.10917,271.60155 708.28058,274.35069 704.10379,277.71075 688.38532,290.3556 690.35991,291.86757 677.94729,257.68242 672.50184,242.68531 667.83707,230.20554 667.58114,229.9496 667.02132,229.38979 660.43313,240.06846 658.97947,243.89187 658.41285,245.3822 657.54464,246.60155 657.05012,246.60155 656.5556,246.60155 651.59335,253.46405 646.02289,261.85155 640.45243,270.23905 629.42545,286.55254 621.5185,298.10375 607.7467,318.22286 611.00129,332.80206 630.73262,339.37917 631.26903,339.55798 637.35994,328.20616 644.26796,314.15291 656.81496,288.62808 658.53426,286.18159 660.86479,290.53623 662.08884,292.82339 675.47596,329.42719 676.59819,333.55537 676.89585,334.65031 677.66071,334.34108 679.69658,332.30269 681.18332,330.8141 685.09975,327.60721 688.39975,325.17625 691.69975,322.74529 696.94536,318.31566 700.05667,315.33263 710.3893,305.426 716.89975,302.94093 716.89975,308.90356 716.89975,312.92608 713.13102,354.81238 712.36068,359.35155 711.69436,363.27782 711.53308,363.25996 727.93991,361.07632 z M 335.56642,331.93488 C 331.85846,328.22693 341.35806,302.22757 347.34293,299.70382 347.86168,299.48507 349.34615,298.24606 350.64175,296.95046 355.58738,292.00483 381.31327,282.72643 397.39975,280.08655 427.71476,275.11167 449.80073,280.3594 467.29047,296.69288 479.06068,307.68496 478.77311,310.55821 465.89975,310.58867 429.61634,310.67449 382.29388,317.87613 351.16795,328.04881 335.91517,333.03378 336.51572,332.88419 335.56642,331.93488 z M 348.641,322.75533 C 370.85328,314.64885 401.23619,309.42106 445.34362,306.11634 469.6778,304.29312 468.09084,304.81821 462.67515,300.38174 433.93032,276.83431 384.8253,278.5419 353.26551,304.18638 347.244,309.07927 337.35775,325.60155 340.45157,325.60155 340.6664,325.60155 344.35164,324.32075 348.641,322.75533 z"
     id="path4119"
     inkscape:connector-curvature="0" />
</svg>
